<?xml version="1.0" encoding="UTF-8" standalone="no"?>
<!DOCTYPE svg PUBLIC "-//W3C//DTD SVG 1.1//EN"
 "http://www.w3.org/Graphics/SVG/1.1/DTD/svg11.dtd">
<!-- Generated by graphviz version 2.26.3 (20100126.1600)
 -->
<!-- Title: G Pages: 1 -->
<svg width="862pt" height="1738pt"
 viewBox="0.00 0.00 862.00 1738.00" xmlns="http://www.w3.org/2000/svg" xmlns:xlink="http://www.w3.org/1999/xlink">
<g id="graph1" class="graph" transform="scale(1 1) rotate(0) translate(4 1734)">
<title>G</title>
<polygon fill="white" stroke="white" points="-4,5 -4,-1734 859,-1734 859,5 -4,5"/>
<g id="graph2" class="cluster"><title>cluster_global</title>
<polyline fill="none" stroke="gray" points="336,-136 834,-136 "/>
<path fill="none" stroke="gray" d="M834,-136C840,-136 846,-142 846,-148"/>
<polyline fill="none" stroke="gray" points="846,-148 846,-1710 "/>
<path fill="none" stroke="gray" d="M846,-1710C846,-1716 840,-1722 834,-1722"/>
<polyline fill="none" stroke="gray" points="834,-1722 336,-1722 "/>
<path fill="none" stroke="gray" d="M336,-1722C330,-1722 324,-1716 324,-1710"/>
<polyline fill="none" stroke="gray" points="324,-1710 324,-148 "/>
<path fill="none" stroke="gray" d="M324,-148C324,-142 330,-136 336,-136"/>
<text text-anchor="middle" x="585" y="-1708.1" font-family="Times Roman,serif" font-size="11.00" fill="gray">global</text>
</g>
<!-- \\CleanPHP -->
<g id="node2" class="node"><title>\\CleanPHP</title>
<a xlink:href="CleanPHP.html" xlink:title="CleanPHP" target="_parent">
<polygon fill="none" stroke="black" points="773,-1692 703,-1692 703,-1656 773,-1656 773,-1692"/>
<text text-anchor="middle" x="738" y="-1671.1" font-family="Courier,monospace" font-size="11.00">CleanPHP</text>
</a>
</g>
<!-- \\ClassNotFoundException -->
<g id="node3" class="node"><title>\\ClassNotFoundException</title>
<a xlink:href="CleanPHP.html" xlink:title="ClassNotFoundException" target="_parent">
<polygon fill="none" stroke="black" points="820,-1044 656,-1044 656,-1008 820,-1008 820,-1044"/>
<text text-anchor="middle" x="738" y="-1023.1" font-family="Courier,monospace" font-size="11.00">ClassNotFoundException</text>
</a>
</g>
<!-- \\RuntimeException -->
<g id="node37" class="node"><title>\\RuntimeException</title>
<ellipse fill="none" stroke="black" cx="103" cy="-972" rx="103.238" ry="18.3848"/>
<text text-anchor="middle" x="103" y="-968.4" font-family="Times Roman,serif" font-size="14.00" fill="gray">\RuntimeException</text>
</g>
<!-- \\ClassNotFoundException&#45;&gt;\\RuntimeException -->
<g id="edge3" class="edge"><title>\\ClassNotFoundException&#45;&gt;\\RuntimeException</title>
<path fill="none" stroke="black" d="M671.676,-1007.94C608.12,-992.246 509.241,-972 422,-972"/>
</g>
<!-- \\MissingResourceException -->
<g id="node4" class="node"><title>\\MissingResourceException</title>
<a xlink:href="CleanPHP.html" xlink:title="MissingResourceException" target="_parent">
<polygon fill="none" stroke="black" points="511,-1314 333,-1314 333,-1278 511,-1278 511,-1314"/>
<text text-anchor="middle" x="422" y="-1293.1" font-family="Courier,monospace" font-size="11.00">MissingResourceException</text>
</a>
</g>
<!-- \\MissingResourceException&#45;&gt;\\RuntimeException -->
<g id="edge5" class="edge"><title>\\MissingResourceException&#45;&gt;\\RuntimeException</title>
<path fill="none" stroke="black" d="M332.465,-1294.8C313.272,-1291.25 293.983,-1284.9 278,-1274 178.149,-1205.89 127.658,-1060.58 110.226,-999.719"/>
<polygon fill="none" stroke="black" points="113.584,-998.73 107.53,-990.035 106.84,-1000.61 113.584,-998.73"/>
</g>
<!-- \\MissingIndexException -->
<g id="node5" class="node"><title>\\MissingIndexException</title>
<a xlink:href="CleanPHP.html" xlink:title="MissingIndexException" target="_parent">
<polygon fill="none" stroke="black" points="817,-1314 659,-1314 659,-1278 817,-1278 817,-1314"/>
<text text-anchor="middle" x="738" y="-1293.1" font-family="Courier,monospace" font-size="11.00">MissingIndexException</text>
</a>
</g>
<!-- \\MissingIndexException&#45;&gt;\\MissingResourceException -->
<g id="edge7" class="edge"><title>\\MissingIndexException&#45;&gt;\\MissingResourceException</title>
<path fill="none" stroke="black" d="M658.668,-1296C617.198,-1296 566.021,-1296 521.877,-1296"/>
<polygon fill="none" stroke="black" points="521.697,-1292.5 511.697,-1296 521.697,-1299.5 521.697,-1292.5"/>
</g>
<!-- \\ResourceUpdateException -->
<g id="node6" class="node"><title>\\ResourceUpdateException</title>
<a xlink:href="CleanPHP.html" xlink:title="ResourceUpdateException" target="_parent">
<polygon fill="none" stroke="black" points="824,-990 652,-990 652,-954 824,-954 824,-990"/>
<text text-anchor="middle" x="738" y="-969.1" font-family="Courier,monospace" font-size="11.00">ResourceUpdateException</text>
</a>
</g>
<!-- \\ResourceUpdateException&#45;&gt;\\RuntimeException -->
<g id="edge9" class="edge"><title>\\ResourceUpdateException&#45;&gt;\\RuntimeException</title>
<path fill="none" stroke="black" d="M651.828,-972C588.296,-972 499.766,-972 422,-972"/>
</g>
<!-- \\PermissionsException -->
<g id="node7" class="node"><title>\\PermissionsException</title>
<a xlink:href="CleanPHP.html" xlink:title="PermissionsException" target="_parent">
<polygon fill="none" stroke="black" points="814,-936 662,-936 662,-900 814,-900 814,-936"/>
<text text-anchor="middle" x="738" y="-915.1" font-family="Courier,monospace" font-size="11.00">PermissionsException</text>
</a>
</g>
<!-- \\PermissionsException&#45;&gt;\\RuntimeException -->
<g id="edge11" class="edge"><title>\\PermissionsException&#45;&gt;\\RuntimeException</title>
<path fill="none" stroke="black" d="M671.676,-936.056C608.12,-951.754 509.241,-972 422,-972"/>
<path fill="none" stroke="black" d="M422,-972C353.669,-972 277.105,-972 216.116,-972"/>
<polygon fill="none" stroke="black" points="216.079,-968.5 206.079,-972 216.079,-975.5 216.079,-968.5"/>
</g>
<!-- \\FormValidatorException -->
<g id="node8" class="node"><title>\\FormValidatorException</title>
<a xlink:href="CleanPHP.html" xlink:title="FormValidatorException" target="_parent">
<polygon fill="none" stroke="black" points="820,-612 656,-612 656,-576 820,-576 820,-612"/>
<text text-anchor="middle" x="738" y="-591.1" font-family="Courier,monospace" font-size="11.00">FormValidatorException</text>
</a>
</g>
<!-- \\InvalidArgumentException -->
<g id="node43" class="node"><title>\\InvalidArgumentException</title>
<ellipse fill="none" stroke="black" cx="422" cy="-110" rx="143.043" ry="18.3848"/>
<text text-anchor="middle" x="422" y="-106.4" font-family="Times Roman,serif" font-size="14.00" fill="gray">\InvalidArgumentException</text>
</g>
<!-- \\FormValidatorException&#45;&gt;\\InvalidArgumentException -->
<g id="edge13" class="edge"><title>\\FormValidatorException&#45;&gt;\\InvalidArgumentException</title>
<path fill="none" stroke="black" d="M655.342,-580.423C648.875,-576.875 642.947,-572.467 638,-567 506.508,-421.701 705.425,-269.704 566,-132 563.048,-129.084 559.883,-126.452 556.544,-124.079"/>
<polygon fill="none" stroke="black" points="558.248,-121.017 547.91,-118.699 554.546,-126.958 558.248,-121.017"/>
</g>
<!-- \\UnexpectedFieldException -->
<g id="node9" class="node"><title>\\UnexpectedFieldException</title>
<a xlink:href="CleanPHP.html" xlink:title="UnexpectedFieldException" target="_parent">
<polygon fill="none" stroke="black" points="827,-558 649,-558 649,-522 827,-522 827,-558"/>
<text text-anchor="middle" x="738" y="-537.1" font-family="Courier,monospace" font-size="11.00">UnexpectedFieldException</text>
</a>
</g>
<!-- \\UnexpectedFieldException&#45;&gt;\\RuntimeException -->
<g id="edge15" class="edge"><title>\\UnexpectedFieldException&#45;&gt;\\RuntimeException</title>
<path fill="none" stroke="black" d="M648.49,-522.167C644.675,-519.502 641.141,-516.464 638,-513 507.845,-369.448 705.375,-217.618 566,-83 519.568,-38.1521 484.922,-49.5748 422,-64"/>
</g>
<!-- \\Config -->
<g id="node10" class="node"><title>\\Config</title>
<a xlink:href="modules.config.Config.html" xlink:title="Config" target="_parent">
<polygon fill="none" stroke="black" points="450,-1638 394,-1638 394,-1602 450,-1602 450,-1638"/>
<text text-anchor="middle" x="422" y="-1617.1" font-family="Courier,monospace" font-size="11.00">Config</text>
</a>
</g>
<!-- \\ConfigJSON -->
<g id="node11" class="node"><title>\\ConfigJSON</title>
<a xlink:href="modules.config.ConfigJSON.html" xlink:title="ConfigJSON" target="_parent">
<polygon fill="none" stroke="black" points="780,-1638 696,-1638 696,-1602 780,-1602 780,-1638"/>
<text text-anchor="middle" x="738" y="-1617.1" font-family="Courier,monospace" font-size="11.00">ConfigJSON</text>
</a>
</g>
<!-- \\ConfigJSON&#45;&gt;\\Config -->
<g id="edge33" class="edge"><title>\\ConfigJSON&#45;&gt;\\Config</title>
<path fill="none" stroke="black" stroke-dasharray="1,5" d="M695.711,-1620C634.154,-1620 520.725,-1620 461.05,-1620"/>
<polygon fill="none" stroke="black" points="460.905,-1616.5 450.905,-1620 460.905,-1623.5 460.905,-1616.5"/>
</g>
<!-- \\MissingConfigException -->
<g id="node12" class="node"><title>\\MissingConfigException</title>
<a xlink:href="modules.config.MissingConfigException.html" xlink:title="MissingConfigException" target="_parent">
<polygon fill="none" stroke="black" points="820,-1260 656,-1260 656,-1224 820,-1224 820,-1260"/>
<text text-anchor="middle" x="738" y="-1239.1" font-family="Courier,monospace" font-size="11.00">MissingConfigException</text>
</a>
</g>
<!-- \\MissingConfigException&#45;&gt;\\MissingResourceException -->
<g id="edge17" class="edge"><title>\\MissingConfigException&#45;&gt;\\MissingResourceException</title>
<path fill="none" stroke="black" d="M655.422,-1257.92C627.105,-1263.23 595.198,-1269.05 566,-1274 551.717,-1276.42 536.616,-1278.86 521.779,-1281.18"/>
<polygon fill="none" stroke="black" points="520.904,-1277.78 511.562,-1282.78 521.982,-1284.69 520.904,-1277.78"/>
</g>
<!-- \\Cookie -->
<g id="node13" class="node"><title>\\Cookie</title>
<a xlink:href="modules.core.Cookie.html" xlink:title="Cookie" target="_parent">
<polygon fill="none" stroke="black" points="766,-1206 710,-1206 710,-1170 766,-1170 766,-1206"/>
<text text-anchor="middle" x="738" y="-1185.1" font-family="Courier,monospace" font-size="11.00">Cookie</text>
</a>
</g>
<!-- \\Session -->
<g id="node14" class="node"><title>\\Session</title>
<a xlink:href="modules.core.Session.html" xlink:title="Session" target="_parent">
<polygon fill="none" stroke="black" points="770,-1152 706,-1152 706,-1116 770,-1116 770,-1152"/>
<text text-anchor="middle" x="738" y="-1131.1" font-family="Courier,monospace" font-size="11.00">Session</text>
</a>
</g>
<!-- \\String -->
<g id="node15" class="node"><title>\\String</title>
<a xlink:href="modules.core.String.html" xlink:title="String" target="_parent">
<polygon fill="none" stroke="black" points="766,-1098 710,-1098 710,-1062 766,-1062 766,-1098"/>
<text text-anchor="middle" x="738" y="-1077.1" font-family="Courier,monospace" font-size="11.00">String</text>
</a>
</g>
<!-- \\Database -->
<g id="node16" class="node"><title>\\Database</title>
<a xlink:href="modules.database.Database.html" xlink:title="Database" target="_parent">
<polygon fill="none" stroke="black" points="457,-1584 387,-1584 387,-1548 457,-1548 457,-1584"/>
<text text-anchor="middle" x="422" y="-1563.1" font-family="Courier,monospace" font-size="11.00">Database</text>
</a>
</g>
<!-- \\DatabaseConnectionException -->
<g id="node17" class="node"><title>\\DatabaseConnectionException</title>
<a xlink:href="modules.database.DatabaseConnectionException.html" xlink:title="DatabaseConnectionException" target="_parent">
<polygon fill="none" stroke="black" points="837,-342 639,-342 639,-306 837,-306 837,-342"/>
<text text-anchor="middle" x="738" y="-321.1" font-family="Courier,monospace" font-size="11.00">DatabaseConnectionException</text>
</a>
</g>
<!-- \\DatabaseConnectionException&#45;&gt;\\RuntimeException -->
<g id="edge19" class="edge"><title>\\DatabaseConnectionException&#45;&gt;\\RuntimeException</title>
<path fill="none" stroke="black" d="M649.591,-305.825C645.439,-303.253 641.536,-300.327 638,-297 564.916,-228.233 643.477,-146.777 566,-83 516.16,-41.9725 484.922,-49.5748 422,-64"/>
</g>
<!-- \\DatabaseQueryException -->
<g id="node18" class="node"><title>\\DatabaseQueryException</title>
<a xlink:href="modules.database.DatabaseQueryException.html" xlink:title="DatabaseQueryException" target="_parent">
<polygon fill="none" stroke="black" points="820,-288 656,-288 656,-252 820,-252 820,-288"/>
<text text-anchor="middle" x="738" y="-267.1" font-family="Courier,monospace" font-size="11.00">DatabaseQueryException</text>
</a>
</g>
<!-- \\DatabaseQueryException&#45;&gt;\\RuntimeException -->
<g id="edge21" class="edge"><title>\\DatabaseQueryException&#45;&gt;\\RuntimeException</title>
<path fill="none" stroke="black" d="M655.27,-254.251C649.061,-251.144 643.201,-247.433 638,-243 578.652,-192.418 628.567,-129.542 566,-83 514.204,-44.4708 484.922,-49.5748 422,-64"/>
<path fill="none" stroke="black" d="M422,-64C359.078,-78.4252 325.066,-38.8174 278,-83 148.331,-204.725 111.197,-805.033 104.296,-943.48"/>
<polygon fill="none" stroke="black" points="100.789,-943.535 103.8,-953.693 107.781,-943.875 100.789,-943.535"/>
</g>
<!-- \\MySQLiDatabase -->
<g id="node19" class="node"><title>\\MySQLiDatabase</title>
<a xlink:href="modules.database.mysqli.MySQLiDatabase.html" xlink:title="MySQLiDatabase" target="_parent">
<polygon fill="none" stroke="black" points="793,-1584 683,-1584 683,-1548 793,-1548 793,-1584"/>
<text text-anchor="middle" x="738" y="-1563.1" font-family="Courier,monospace" font-size="11.00">MySQLiDatabase</text>
</a>
</g>
<!-- \\MySQLiDatabase&#45;&gt;\\Database -->
<g id="edge35" class="edge"><title>\\MySQLiDatabase&#45;&gt;\\Database</title>
<path fill="none" stroke="black" stroke-dasharray="1,5" d="M682.233,-1566C621.184,-1566 524.449,-1566 467.706,-1566"/>
<polygon fill="none" stroke="black" points="467.594,-1562.5 457.594,-1566 467.594,-1569.5 467.594,-1562.5"/>
</g>
<!-- \\Debug -->
<g id="node20" class="node"><title>\\Debug</title>
<a xlink:href="modules.debug.Debug.html" xlink:title="Debug" target="_parent">
<polygon fill="none" stroke="black" points="765,-882 711,-882 711,-846 765,-846 765,-882"/>
<text text-anchor="middle" x="738" y="-861.1" font-family="Courier,monospace" font-size="11.00">Debug</text>
</a>
</g>
<!-- \\ErrorHandler -->
<g id="node21" class="node"><title>\\ErrorHandler</title>
<a xlink:href="modules.error.ErrorHandler.html" xlink:title="ErrorHandler" target="_parent">
<polygon fill="none" stroke="black" points="787,-828 689,-828 689,-792 787,-792 787,-828"/>
<text text-anchor="middle" x="738" y="-807.1" font-family="Courier,monospace" font-size="11.00">ErrorHandler</text>
</a>
</g>
<!-- \\FileUpload -->
<g id="node22" class="node"><title>\\FileUpload</title>
<a xlink:href="modules.input.FileUpload.html" xlink:title="FileUpload" target="_parent">
<polygon fill="none" stroke="black" points="780,-774 696,-774 696,-738 780,-738 780,-774"/>
<text text-anchor="middle" x="738" y="-753.1" font-family="Courier,monospace" font-size="11.00">FileUpload</text>
</a>
</g>
<!-- \\Get -->
<g id="node23" class="node"><title>\\Get</title>
<a xlink:href="modules.input.Get.html" xlink:title="Get" target="_parent">
<polygon fill="none" stroke="black" points="765,-720 711,-720 711,-684 765,-684 765,-720"/>
<text text-anchor="middle" x="738" y="-699.1" font-family="Courier,monospace" font-size="11.00">Get</text>
</a>
</g>
<!-- \\Post -->
<g id="node24" class="node"><title>\\Post</title>
<a xlink:href="modules.input.Post.html" xlink:title="Post" target="_parent">
<polygon fill="none" stroke="black" points="765,-666 711,-666 711,-630 765,-630 765,-666"/>
<text text-anchor="middle" x="738" y="-645.1" font-family="Courier,monospace" font-size="11.00">Post</text>
</a>
</g>
<!-- \\File -->
<g id="node25" class="node"><title>\\File</title>
<a xlink:href="modules.io.File.html" xlink:title="File" target="_parent">
<polygon fill="none" stroke="black" points="449,-1476 395,-1476 395,-1440 449,-1440 449,-1476"/>
<text text-anchor="middle" x="422" y="-1455.1" font-family="Courier,monospace" font-size="11.00">File</text>
</a>
</g>
<!-- \\FileNotFoundException -->
<g id="node26" class="node"><title>\\FileNotFoundException</title>
<a xlink:href="modules.io.FileNotFoundException.html" xlink:title="FileNotFoundException" target="_parent">
<polygon fill="none" stroke="black" points="817,-1530 659,-1530 659,-1494 817,-1494 817,-1530"/>
<text text-anchor="middle" x="738" y="-1509.1" font-family="Courier,monospace" font-size="11.00">FileNotFoundException</text>
</a>
</g>
<!-- \\IOException -->
<g id="node28" class="node"><title>\\IOException</title>
<a xlink:href="modules.io.IOException.html" xlink:title="IOException" target="_parent">
<polygon fill="none" stroke="black" points="467,-1530 377,-1530 377,-1494 467,-1494 467,-1530"/>
<text text-anchor="middle" x="422" y="-1509.1" font-family="Courier,monospace" font-size="11.00">IOException</text>
</a>
</g>
<!-- \\FileNotFoundException&#45;&gt;\\IOException -->
<g id="edge23" class="edge"><title>\\FileNotFoundException&#45;&gt;\\IOException</title>
<path fill="none" stroke="black" d="M658.668,-1512C602.225,-1512 527.799,-1512 477.6,-1512"/>
<polygon fill="none" stroke="black" points="477.584,-1508.5 467.584,-1512 477.584,-1515.5 477.584,-1508.5"/>
</g>
<!-- \\Folder -->
<g id="node27" class="node"><title>\\Folder</title>
<a xlink:href="modules.io.Folder.html" xlink:title="Folder" target="_parent">
<polygon fill="none" stroke="black" points="766,-1476 710,-1476 710,-1440 766,-1440 766,-1476"/>
<text text-anchor="middle" x="738" y="-1455.1" font-family="Courier,monospace" font-size="11.00">Folder</text>
</a>
</g>
<!-- \\Folder&#45;&gt;\\File -->
<g id="edge25" class="edge"><title>\\Folder&#45;&gt;\\File</title>
<path fill="none" stroke="black" d="M709.4,-1458C652.122,-1458 523.365,-1458 459.454,-1458"/>
<polygon fill="none" stroke="black" points="459.406,-1454.5 449.406,-1458 459.406,-1461.5 459.406,-1454.5"/>
</g>
<!-- \\Exception -->
<g id="node51" class="node"><title>\\Exception</title>
<ellipse fill="none" stroke="black" cx="103" cy="-1512" rx="62.9325" ry="18.3848"/>
<text text-anchor="middle" x="103" y="-1508.4" font-family="Times Roman,serif" font-size="14.00" fill="gray">\Exception</text>
</g>
<!-- \\IOException&#45;&gt;\\Exception -->
<g id="edge27" class="edge"><title>\\IOException&#45;&gt;\\Exception</title>
<path fill="none" stroke="black" d="M376.295,-1512C324.073,-1512 237.893,-1512 176.268,-1512"/>
<polygon fill="none" stroke="black" points="176.215,-1508.5 166.215,-1512 176.215,-1515.5 176.215,-1508.5"/>
</g>
<!-- \\Layout -->
<g id="node29" class="node"><title>\\Layout</title>
<a xlink:href="modules.layout.Layout.html" xlink:title="Layout" target="_parent">
<polygon fill="none" stroke="black" points="766,-504 710,-504 710,-468 766,-468 766,-504"/>
<text text-anchor="middle" x="738" y="-483.1" font-family="Courier,monospace" font-size="11.00">Layout</text>
</a>
</g>
<!-- \\LayoutLoader -->
<g id="node30" class="node"><title>\\LayoutLoader</title>
<a xlink:href="modules.layout.LayoutLoader.html" xlink:title="LayoutLoader" target="_parent">
<polygon fill="none" stroke="black" points="787,-450 689,-450 689,-414 787,-414 787,-450"/>
<text text-anchor="middle" x="738" y="-429.1" font-family="Courier,monospace" font-size="11.00">LayoutLoader</text>
</a>
</g>
<!-- \\Language -->
<g id="node31" class="node"><title>\\Language</title>
<a xlink:href="modules.locale.Language.html" xlink:title="Language" target="_parent">
<polygon fill="none" stroke="black" points="773,-396 703,-396 703,-360 773,-360 773,-396"/>
<text text-anchor="middle" x="738" y="-375.1" font-family="Courier,monospace" font-size="11.00">Language</text>
</a>
</g>
<!-- \\MissingPhraseException -->
<g id="node32" class="node"><title>\\MissingPhraseException</title>
<a xlink:href="modules.locale.MissingPhraseException.html" xlink:title="MissingPhraseException" target="_parent">
<polygon fill="none" stroke="black" points="820,-1368 656,-1368 656,-1332 820,-1332 820,-1368"/>
<text text-anchor="middle" x="738" y="-1347.1" font-family="Courier,monospace" font-size="11.00">MissingPhraseException</text>
</a>
</g>
<!-- \\MissingPhraseException&#45;&gt;\\MissingResourceException -->
<g id="edge29" class="edge"><title>\\MissingPhraseException&#45;&gt;\\MissingResourceException</title>
<path fill="none" stroke="black" d="M655.387,-1335.88C614.416,-1328.88 564.612,-1320.37 521.55,-1313.01"/>
<polygon fill="none" stroke="black" points="522.064,-1309.55 511.617,-1311.31 520.885,-1316.45 522.064,-1309.55"/>
</g>
<!-- \\MissingPhraseMapException -->
<g id="node33" class="node"><title>\\MissingPhraseMapException</title>
<a xlink:href="modules.locale.MissingPhraseMapException.html" xlink:title="MissingPhraseMapException" target="_parent">
<polygon fill="none" stroke="black" points="830,-1422 646,-1422 646,-1386 830,-1386 830,-1422"/>
<text text-anchor="middle" x="738" y="-1401.1" font-family="Courier,monospace" font-size="11.00">MissingPhraseMapException</text>
</a>
</g>
<!-- \\MissingPhraseMapException&#45;&gt;\\MissingResourceException -->
<g id="edge31" class="edge"><title>\\MissingPhraseMapException&#45;&gt;\\MissingResourceException</title>
<path fill="none" stroke="black" d="M667.815,-1385.96C657.764,-1383.11 647.587,-1380.08 638,-1377 581.997,-1358.98 519.147,-1334.97 475.746,-1317.78"/>
<polygon fill="none" stroke="black" points="476.829,-1314.45 466.243,-1314 474.242,-1320.95 476.829,-1314.45"/>
</g>
<!-- \\PhraseMap -->
<g id="node34" class="node"><title>\\PhraseMap</title>
<a xlink:href="modules.locale.PhraseMap.html" xlink:title="PhraseMap" target="_parent">
<polygon fill="none" stroke="black" points="776,-234 700,-234 700,-198 776,-198 776,-234"/>
<text text-anchor="middle" x="738" y="-213.1" font-family="Courier,monospace" font-size="11.00">PhraseMap</text>
</a>
</g>
<!-- \\ArrayAccess -->
<g id="node57" class="node"><title>\\ArrayAccess</title>
<ellipse fill="none" stroke="black" cx="422" cy="-18" rx="77.0746" ry="18.3848"/>
<text text-anchor="middle" x="422" y="-14.4" font-family="Times Roman,serif" font-size="14.00" fill="gray">\\ArrayAccess</text>
</g>
<!-- \\PhraseMap&#45;&gt;\\ArrayAccess -->
<g id="edge37" class="edge"><title>\\PhraseMap&#45;&gt;\\ArrayAccess</title>
<path fill="none" stroke="black" stroke-dasharray="1,5" d="M699.018,-212.948C678.981,-209.654 655.223,-202.879 638,-189 583.827,-145.345 621.143,-92.4237 566,-50 549.091,-36.9908 527.937,-29.0598 507.093,-24.2794"/>
<polygon fill="none" stroke="black" points="507.733,-20.8378 497.231,-22.2377 506.314,-27.6924 507.733,-20.8378"/>
</g>
<!-- \\Logger -->
<g id="node35" class="node"><title>\\Logger</title>
<a xlink:href="modules.logging.Logger.html" xlink:title="Logger" target="_parent">
<polygon fill="none" stroke="black" points="766,-180 710,-180 710,-144 766,-144 766,-180"/>
<text text-anchor="middle" x="738" y="-159.1" font-family="Courier,monospace" font-size="11.00">Logger</text>
</a>
</g>
</g>
</svg>
