<?xml version="1.0" encoding="UTF-8" standalone="no"?>
<!DOCTYPE svg PUBLIC "-//W3C//DTD SVG 1.1//EN"
 "http://www.w3.org/Graphics/SVG/1.1/DTD/svg11.dtd">
<!-- Generated by graphviz version 2.26.3 (20100126.1600)
 -->
<!-- Title: G Pages: 1 -->
<svg width="862pt" height="1634pt"
 viewBox="0.00 0.00 862.00 1634.05" xmlns="http://www.w3.org/2000/svg" xmlns:xlink="http://www.w3.org/1999/xlink">
<g id="graph1" class="graph" transform="scale(1 1) rotate(0) translate(4 1630.05)">
<title>G</title>
<polygon fill="white" stroke="white" points="-4,5 -4,-1630.05 859,-1630.05 859,5 -4,5"/>
<g id="graph2" class="cluster"><title>cluster_global</title>
<polyline fill="none" stroke="gray" points="336,-86.0465 834,-86.0465 "/>
<path fill="none" stroke="gray" d="M834,-86.0465C840,-86.0465 846,-92.0465 846,-98.0465"/>
<polyline fill="none" stroke="gray" points="846,-98.0465 846,-1606.05 "/>
<path fill="none" stroke="gray" d="M846,-1606.05C846,-1612.05 840,-1618.05 834,-1618.05"/>
<polyline fill="none" stroke="gray" points="834,-1618.05 336,-1618.05 "/>
<path fill="none" stroke="gray" d="M336,-1618.05C330,-1618.05 324,-1612.05 324,-1606.05"/>
<polyline fill="none" stroke="gray" points="324,-1606.05 324,-98.0465 "/>
<path fill="none" stroke="gray" d="M324,-98.0465C324,-92.0465 330,-86.0465 336,-86.0465"/>
<text text-anchor="middle" x="585" y="-1604.15" font-family="Times Roman,serif" font-size="11.00" fill="gray">global</text>
</g>
<!-- \\CleanPHP -->
<g id="node2" class="node"><title>\\CleanPHP</title>
<a xlink:href="CleanPHP.html" xlink:title="CleanPHP" target="_parent">
<polygon fill="none" stroke="black" points="773,-1588.05 703,-1588.05 703,-1552.05 773,-1552.05 773,-1588.05"/>
<text text-anchor="middle" x="738" y="-1567.15" font-family="Courier,monospace" font-size="11.00">CleanPHP</text>
</a>
</g>
<!-- \\ClassNotFoundException -->
<g id="node3" class="node"><title>\\ClassNotFoundException</title>
<a xlink:href="CleanPHP.html" xlink:title="ClassNotFoundException" target="_parent">
<polygon fill="none" stroke="black" points="820,-940.047 656,-940.047 656,-904.047 820,-904.047 820,-940.047"/>
<text text-anchor="middle" x="738" y="-919.147" font-family="Courier,monospace" font-size="11.00">ClassNotFoundException</text>
</a>
</g>
<!-- \\RuntimeException -->
<g id="node36" class="node"><title>\\RuntimeException</title>
<ellipse fill="none" stroke="black" cx="103" cy="-868.047" rx="103.238" ry="18.3848"/>
<text text-anchor="middle" x="103" y="-864.447" font-family="Times Roman,serif" font-size="14.00" fill="gray">\RuntimeException</text>
</g>
<!-- \\ClassNotFoundException&#45;&gt;\\RuntimeException -->
<g id="edge3" class="edge"><title>\\ClassNotFoundException&#45;&gt;\\RuntimeException</title>
<path fill="none" stroke="black" d="M671.676,-903.99C608.12,-888.292 509.241,-868.047 422,-868.047"/>
</g>
<!-- \\MissingResourceException -->
<g id="node4" class="node"><title>\\MissingResourceException</title>
<a xlink:href="CleanPHP.html" xlink:title="MissingResourceException" target="_parent">
<polygon fill="none" stroke="black" points="511,-1210.05 333,-1210.05 333,-1174.05 511,-1174.05 511,-1210.05"/>
<text text-anchor="middle" x="422" y="-1189.15" font-family="Courier,monospace" font-size="11.00">MissingResourceException</text>
</a>
</g>
<!-- \\MissingResourceException&#45;&gt;\\RuntimeException -->
<g id="edge5" class="edge"><title>\\MissingResourceException&#45;&gt;\\RuntimeException</title>
<path fill="none" stroke="black" d="M332.465,-1190.85C313.272,-1187.3 293.983,-1180.95 278,-1170.05 178.149,-1101.94 127.658,-956.629 110.226,-895.766"/>
<polygon fill="none" stroke="black" points="113.584,-894.776 107.53,-886.082 106.84,-896.654 113.584,-894.776"/>
</g>
<!-- \\MissingIndexException -->
<g id="node5" class="node"><title>\\MissingIndexException</title>
<a xlink:href="CleanPHP.html" xlink:title="MissingIndexException" target="_parent">
<polygon fill="none" stroke="black" points="817,-1264.05 659,-1264.05 659,-1228.05 817,-1228.05 817,-1264.05"/>
<text text-anchor="middle" x="738" y="-1243.15" font-family="Courier,monospace" font-size="11.00">MissingIndexException</text>
</a>
</g>
<!-- \\MissingIndexException&#45;&gt;\\MissingResourceException -->
<g id="edge7" class="edge"><title>\\MissingIndexException&#45;&gt;\\MissingResourceException</title>
<path fill="none" stroke="black" d="M658.668,-1232.49C617.111,-1225.39 565.805,-1216.62 521.598,-1209.07"/>
<polygon fill="none" stroke="black" points="522.144,-1205.61 511.697,-1207.37 520.965,-1212.51 522.144,-1205.61"/>
</g>
<!-- \\ResourceUpdateException -->
<g id="node6" class="node"><title>\\ResourceUpdateException</title>
<a xlink:href="CleanPHP.html" xlink:title="ResourceUpdateException" target="_parent">
<polygon fill="none" stroke="black" points="824,-886.047 652,-886.047 652,-850.047 824,-850.047 824,-886.047"/>
<text text-anchor="middle" x="738" y="-865.147" font-family="Courier,monospace" font-size="11.00">ResourceUpdateException</text>
</a>
</g>
<!-- \\ResourceUpdateException&#45;&gt;\\RuntimeException -->
<g id="edge9" class="edge"><title>\\ResourceUpdateException&#45;&gt;\\RuntimeException</title>
<path fill="none" stroke="black" d="M651.828,-868.047C588.296,-868.047 499.766,-868.047 422,-868.047"/>
</g>
<!-- \\PermissionsException -->
<g id="node7" class="node"><title>\\PermissionsException</title>
<a xlink:href="CleanPHP.html" xlink:title="PermissionsException" target="_parent">
<polygon fill="none" stroke="black" points="814,-832.047 662,-832.047 662,-796.047 814,-796.047 814,-832.047"/>
<text text-anchor="middle" x="738" y="-811.147" font-family="Courier,monospace" font-size="11.00">PermissionsException</text>
</a>
</g>
<!-- \\PermissionsException&#45;&gt;\\RuntimeException -->
<g id="edge11" class="edge"><title>\\PermissionsException&#45;&gt;\\RuntimeException</title>
<path fill="none" stroke="black" d="M671.676,-832.103C608.12,-847.801 509.241,-868.047 422,-868.047"/>
<path fill="none" stroke="black" d="M422,-868.047C353.669,-868.047 277.105,-868.047 216.116,-868.047"/>
<polygon fill="none" stroke="black" points="216.079,-864.547 206.079,-868.047 216.079,-871.547 216.079,-864.547"/>
</g>
<!-- \\FormValidatorException -->
<g id="node8" class="node"><title>\\FormValidatorException</title>
<a xlink:href="CleanPHP.html" xlink:title="FormValidatorException" target="_parent">
<polygon fill="none" stroke="black" points="820,-508.047 656,-508.047 656,-472.047 820,-472.047 820,-508.047"/>
<text text-anchor="middle" x="738" y="-487.147" font-family="Courier,monospace" font-size="11.00">FormValidatorException</text>
</a>
</g>
<!-- \\InvalidArgumentException -->
<g id="node42" class="node"><title>\\InvalidArgumentException</title>
<ellipse fill="none" stroke="black" cx="422" cy="-60.0465" rx="143.043" ry="18.3848"/>
<text text-anchor="middle" x="422" y="-56.4465" font-family="Times Roman,serif" font-size="14.00" fill="gray">\InvalidArgumentException</text>
</g>
<!-- \\FormValidatorException&#45;&gt;\\InvalidArgumentException -->
<g id="edge13" class="edge"><title>\\FormValidatorException&#45;&gt;\\InvalidArgumentException</title>
<path fill="none" stroke="black" d="M655.473,-476.35C648.979,-472.826 643.009,-468.457 638,-463.047 520.921,-336.594 689.98,-201.741 566,-82.0465 563.015,-79.1647 559.821,-76.5618 556.457,-74.2141"/>
<polygon fill="none" stroke="black" points="558.124,-71.1306 547.769,-68.8901 554.467,-77.0992 558.124,-71.1306"/>
</g>
<!-- \\UnexpectedFieldException -->
<g id="node9" class="node"><title>\\UnexpectedFieldException</title>
<a xlink:href="CleanPHP.html" xlink:title="UnexpectedFieldException" target="_parent">
<polygon fill="none" stroke="black" points="827,-454.047 649,-454.047 649,-418.047 827,-418.047 827,-454.047"/>
<text text-anchor="middle" x="738" y="-433.147" font-family="Courier,monospace" font-size="11.00">UnexpectedFieldException</text>
</a>
</g>
<!-- \\UnexpectedFieldException&#45;&gt;\\RuntimeException -->
<g id="edge15" class="edge"><title>\\UnexpectedFieldException&#45;&gt;\\RuntimeException</title>
<path fill="none" stroke="black" d="M648.145,-417.818C644.473,-415.251 641.058,-412.342 638,-409.047 522.253,-284.336 689.751,-149.819 566,-33.0465 519.048,11.2575 484.345,2.69981 422,-14.0465"/>
</g>
<!-- \\Config -->
<g id="node10" class="node"><title>\\Config</title>
<a xlink:href="modules.config.Config.html" xlink:title="Config" target="_parent">
<polygon fill="none" stroke="black" points="450,-1534.05 394,-1534.05 394,-1498.05 450,-1498.05 450,-1534.05"/>
<text text-anchor="middle" x="422" y="-1513.15" font-family="Courier,monospace" font-size="11.00">Config</text>
</a>
</g>
<!-- \\ConfigJSON -->
<g id="node11" class="node"><title>\\ConfigJSON</title>
<a xlink:href="modules.config.ConfigJSON.html" xlink:title="ConfigJSON" target="_parent">
<polygon fill="none" stroke="black" points="780,-1534.05 696,-1534.05 696,-1498.05 780,-1498.05 780,-1534.05"/>
<text text-anchor="middle" x="738" y="-1513.15" font-family="Courier,monospace" font-size="11.00">ConfigJSON</text>
</a>
</g>
<!-- \\ConfigJSON&#45;&gt;\\Config -->
<g id="edge33" class="edge"><title>\\ConfigJSON&#45;&gt;\\Config</title>
<path fill="none" stroke="black" stroke-dasharray="1,5" d="M695.711,-1516.05C634.154,-1516.05 520.725,-1516.05 461.05,-1516.05"/>
<polygon fill="none" stroke="black" points="460.905,-1512.55 450.905,-1516.05 460.905,-1519.55 460.905,-1512.55"/>
</g>
<!-- \\MissingConfigException -->
<g id="node12" class="node"><title>\\MissingConfigException</title>
<a xlink:href="modules.config.MissingConfigException.html" xlink:title="MissingConfigException" target="_parent">
<polygon fill="none" stroke="black" points="820,-1210.05 656,-1210.05 656,-1174.05 820,-1174.05 820,-1210.05"/>
<text text-anchor="middle" x="738" y="-1189.15" font-family="Courier,monospace" font-size="11.00">MissingConfigException</text>
</a>
</g>
<!-- \\MissingConfigException&#45;&gt;\\MissingResourceException -->
<g id="edge17" class="edge"><title>\\MissingConfigException&#45;&gt;\\MissingResourceException</title>
<path fill="none" stroke="black" d="M655.387,-1192.05C614.503,-1192.05 564.822,-1192.05 521.822,-1192.05"/>
<polygon fill="none" stroke="black" points="521.617,-1188.55 511.617,-1192.05 521.617,-1195.55 521.617,-1188.55"/>
</g>
<!-- \\Cookie -->
<g id="node13" class="node"><title>\\Cookie</title>
<a xlink:href="modules.core.Cookie.html" xlink:title="Cookie" target="_parent">
<polygon fill="none" stroke="black" points="766,-1102.05 710,-1102.05 710,-1066.05 766,-1066.05 766,-1102.05"/>
<text text-anchor="middle" x="738" y="-1081.15" font-family="Courier,monospace" font-size="11.00">Cookie</text>
</a>
</g>
<!-- \\Session -->
<g id="node14" class="node"><title>\\Session</title>
<a xlink:href="modules.core.Session.html" xlink:title="Session" target="_parent">
<polygon fill="none" stroke="black" points="770,-1048.05 706,-1048.05 706,-1012.05 770,-1012.05 770,-1048.05"/>
<text text-anchor="middle" x="738" y="-1027.15" font-family="Courier,monospace" font-size="11.00">Session</text>
</a>
</g>
<!-- \\String -->
<g id="node15" class="node"><title>\\String</title>
<a xlink:href="modules.core.String.html" xlink:title="String" target="_parent">
<polygon fill="none" stroke="black" points="766,-994.047 710,-994.047 710,-958.047 766,-958.047 766,-994.047"/>
<text text-anchor="middle" x="738" y="-973.147" font-family="Courier,monospace" font-size="11.00">String</text>
</a>
</g>
<!-- \\Database -->
<g id="node16" class="node"><title>\\Database</title>
<a xlink:href="modules.database.Database.html" xlink:title="Database" target="_parent">
<polygon fill="none" stroke="black" points="457,-1480.05 387,-1480.05 387,-1444.05 457,-1444.05 457,-1480.05"/>
<text text-anchor="middle" x="422" y="-1459.15" font-family="Courier,monospace" font-size="11.00">Database</text>
</a>
</g>
<!-- \\DatabaseConnectionException -->
<g id="node17" class="node"><title>\\DatabaseConnectionException</title>
<a xlink:href="modules.database.DatabaseConnectionException.html" xlink:title="DatabaseConnectionException" target="_parent">
<polygon fill="none" stroke="black" points="837,-238.047 639,-238.047 639,-202.047 837,-202.047 837,-238.047"/>
<text text-anchor="middle" x="738" y="-217.147" font-family="Courier,monospace" font-size="11.00">DatabaseConnectionException</text>
</a>
</g>
<!-- \\DatabaseConnectionException&#45;&gt;\\RuntimeException -->
<g id="edge19" class="edge"><title>\\DatabaseConnectionException&#45;&gt;\\RuntimeException</title>
<path fill="none" stroke="black" d="M650.921,-201.987C646.322,-199.392 641.969,-196.429 638,-193.047 578.652,-142.464 628.567,-79.5882 566,-33.0465 514.204,5.4827 484.345,2.69981 422,-14.0465"/>
</g>
<!-- \\DatabaseQueryException -->
<g id="node18" class="node"><title>\\DatabaseQueryException</title>
<a xlink:href="modules.database.DatabaseQueryException.html" xlink:title="DatabaseQueryException" target="_parent">
<polygon fill="none" stroke="black" points="820,-184.047 656,-184.047 656,-148.047 820,-148.047 820,-184.047"/>
<text text-anchor="middle" x="738" y="-163.147" font-family="Courier,monospace" font-size="11.00">DatabaseQueryException</text>
</a>
</g>
<!-- \\DatabaseQueryException&#45;&gt;\\RuntimeException -->
<g id="edge21" class="edge"><title>\\DatabaseQueryException&#45;&gt;\\RuntimeException</title>
<path fill="none" stroke="black" d="M655.31,-148.935C649.201,-146.126 643.346,-142.855 638,-139.047 591.613,-106.006 614.473,-62.9434 566,-33.0465 511.056,0.841736 484.345,2.69981 422,-14.0465"/>
<path fill="none" stroke="black" d="M422,-14.0465C359.655,-30.7929 325.335,10.8475 278,-33.0465 155.726,-146.432 113.161,-706.349 104.683,-839.566"/>
<polygon fill="none" stroke="black" points="101.176,-839.572 104.048,-849.77 108.162,-840.007 101.176,-839.572"/>
</g>
<!-- \\MySQLiDatabase -->
<g id="node19" class="node"><title>\\MySQLiDatabase</title>
<a xlink:href="modules.database.mysqli.MySQLiDatabase.html" xlink:title="MySQLiDatabase" target="_parent">
<polygon fill="none" stroke="black" points="793,-1480.05 683,-1480.05 683,-1444.05 793,-1444.05 793,-1480.05"/>
<text text-anchor="middle" x="738" y="-1459.15" font-family="Courier,monospace" font-size="11.00">MySQLiDatabase</text>
</a>
</g>
<!-- \\MySQLiDatabase&#45;&gt;\\Database -->
<g id="edge35" class="edge"><title>\\MySQLiDatabase&#45;&gt;\\Database</title>
<path fill="none" stroke="black" stroke-dasharray="1,5" d="M682.233,-1462.05C621.184,-1462.05 524.449,-1462.05 467.706,-1462.05"/>
<polygon fill="none" stroke="black" points="467.594,-1458.55 457.594,-1462.05 467.594,-1465.55 467.594,-1458.55"/>
</g>
<!-- \\Debug -->
<g id="node20" class="node"><title>\\Debug</title>
<a xlink:href="modules.debug.Debug.html" xlink:title="Debug" target="_parent">
<polygon fill="none" stroke="black" points="765,-778.047 711,-778.047 711,-742.047 765,-742.047 765,-778.047"/>
<text text-anchor="middle" x="738" y="-757.147" font-family="Courier,monospace" font-size="11.00">Debug</text>
</a>
</g>
<!-- \\ErrorHandler -->
<g id="node21" class="node"><title>\\ErrorHandler</title>
<a xlink:href="modules.error.ErrorHandler.html" xlink:title="ErrorHandler" target="_parent">
<polygon fill="none" stroke="black" points="787,-724.047 689,-724.047 689,-688.047 787,-688.047 787,-724.047"/>
<text text-anchor="middle" x="738" y="-703.147" font-family="Courier,monospace" font-size="11.00">ErrorHandler</text>
</a>
</g>
<!-- \\FileUpload -->
<g id="node22" class="node"><title>\\FileUpload</title>
<a xlink:href="modules.input.FileUpload.html" xlink:title="FileUpload" target="_parent">
<polygon fill="none" stroke="black" points="780,-670.047 696,-670.047 696,-634.047 780,-634.047 780,-670.047"/>
<text text-anchor="middle" x="738" y="-649.147" font-family="Courier,monospace" font-size="11.00">FileUpload</text>
</a>
</g>
<!-- \\Get -->
<g id="node23" class="node"><title>\\Get</title>
<a xlink:href="modules.input.Get.html" xlink:title="Get" target="_parent">
<polygon fill="none" stroke="black" points="765,-616.047 711,-616.047 711,-580.047 765,-580.047 765,-616.047"/>
<text text-anchor="middle" x="738" y="-595.147" font-family="Courier,monospace" font-size="11.00">Get</text>
</a>
</g>
<!-- \\Post -->
<g id="node24" class="node"><title>\\Post</title>
<a xlink:href="modules.input.Post.html" xlink:title="Post" target="_parent">
<polygon fill="none" stroke="black" points="765,-562.047 711,-562.047 711,-526.047 765,-526.047 765,-562.047"/>
<text text-anchor="middle" x="738" y="-541.147" font-family="Courier,monospace" font-size="11.00">Post</text>
</a>
</g>
<!-- \\File -->
<g id="node25" class="node"><title>\\File</title>
<a xlink:href="modules.io.File.html" xlink:title="File" target="_parent">
<polygon fill="none" stroke="black" points="449,-1372.05 395,-1372.05 395,-1336.05 449,-1336.05 449,-1372.05"/>
<text text-anchor="middle" x="422" y="-1351.15" font-family="Courier,monospace" font-size="11.00">File</text>
</a>
</g>
<!-- \\FileNotFoundException -->
<g id="node26" class="node"><title>\\FileNotFoundException</title>
<a xlink:href="modules.io.FileNotFoundException.html" xlink:title="FileNotFoundException" target="_parent">
<polygon fill="none" stroke="black" points="817,-1426.05 659,-1426.05 659,-1390.05 817,-1390.05 817,-1426.05"/>
<text text-anchor="middle" x="738" y="-1405.15" font-family="Courier,monospace" font-size="11.00">FileNotFoundException</text>
</a>
</g>
<!-- \\IOException -->
<g id="node28" class="node"><title>\\IOException</title>
<a xlink:href="modules.io.IOException.html" xlink:title="IOException" target="_parent">
<polygon fill="none" stroke="black" points="467,-1426.05 377,-1426.05 377,-1390.05 467,-1390.05 467,-1426.05"/>
<text text-anchor="middle" x="422" y="-1405.15" font-family="Courier,monospace" font-size="11.00">IOException</text>
</a>
</g>
<!-- \\FileNotFoundException&#45;&gt;\\IOException -->
<g id="edge23" class="edge"><title>\\FileNotFoundException&#45;&gt;\\IOException</title>
<path fill="none" stroke="black" d="M658.668,-1408.05C602.225,-1408.05 527.799,-1408.05 477.6,-1408.05"/>
<polygon fill="none" stroke="black" points="477.584,-1404.55 467.584,-1408.05 477.584,-1411.55 477.584,-1404.55"/>
</g>
<!-- \\Folder -->
<g id="node27" class="node"><title>\\Folder</title>
<a xlink:href="modules.io.Folder.html" xlink:title="Folder" target="_parent">
<polygon fill="none" stroke="black" points="766,-1372.05 710,-1372.05 710,-1336.05 766,-1336.05 766,-1372.05"/>
<text text-anchor="middle" x="738" y="-1351.15" font-family="Courier,monospace" font-size="11.00">Folder</text>
</a>
</g>
<!-- \\Folder&#45;&gt;\\File -->
<g id="edge25" class="edge"><title>\\Folder&#45;&gt;\\File</title>
<path fill="none" stroke="black" d="M709.4,-1354.05C652.122,-1354.05 523.365,-1354.05 459.454,-1354.05"/>
<polygon fill="none" stroke="black" points="459.406,-1350.55 449.406,-1354.05 459.406,-1357.55 459.406,-1350.55"/>
</g>
<!-- \\Exception -->
<g id="node50" class="node"><title>\\Exception</title>
<ellipse fill="none" stroke="black" cx="103" cy="-1408.05" rx="62.9325" ry="18.3848"/>
<text text-anchor="middle" x="103" y="-1404.45" font-family="Times Roman,serif" font-size="14.00" fill="gray">\Exception</text>
</g>
<!-- \\IOException&#45;&gt;\\Exception -->
<g id="edge27" class="edge"><title>\\IOException&#45;&gt;\\Exception</title>
<path fill="none" stroke="black" d="M376.295,-1408.05C324.073,-1408.05 237.893,-1408.05 176.268,-1408.05"/>
<polygon fill="none" stroke="black" points="176.215,-1404.55 166.215,-1408.05 176.215,-1411.55 176.215,-1404.55"/>
</g>
<!-- \\Layout -->
<g id="node29" class="node"><title>\\Layout</title>
<a xlink:href="modules.layout.Layout.html" xlink:title="Layout" target="_parent">
<polygon fill="none" stroke="black" points="766,-400.047 710,-400.047 710,-364.047 766,-364.047 766,-400.047"/>
<text text-anchor="middle" x="738" y="-379.147" font-family="Courier,monospace" font-size="11.00">Layout</text>
</a>
</g>
<!-- \\LayoutLoader -->
<g id="node30" class="node"><title>\\LayoutLoader</title>
<a xlink:href="modules.layout.LayoutLoader.html" xlink:title="LayoutLoader" target="_parent">
<polygon fill="none" stroke="black" points="787,-346.047 689,-346.047 689,-310.047 787,-310.047 787,-346.047"/>
<text text-anchor="middle" x="738" y="-325.147" font-family="Courier,monospace" font-size="11.00">LayoutLoader</text>
</a>
</g>
<!-- \\Language -->
<g id="node31" class="node"><title>\\Language</title>
<a xlink:href="modules.locale.Language.html" xlink:title="Language" target="_parent">
<polygon fill="none" stroke="black" points="773,-292.047 703,-292.047 703,-256.047 773,-256.047 773,-292.047"/>
<text text-anchor="middle" x="738" y="-271.147" font-family="Courier,monospace" font-size="11.00">Language</text>
</a>
</g>
<!-- \\MissingPhraseException -->
<g id="node32" class="node"><title>\\MissingPhraseException</title>
<a xlink:href="modules.locale.MissingPhraseException.html" xlink:title="MissingPhraseException" target="_parent">
<polygon fill="none" stroke="black" points="820,-1318.05 656,-1318.05 656,-1282.05 820,-1282.05 820,-1318.05"/>
<text text-anchor="middle" x="738" y="-1297.15" font-family="Courier,monospace" font-size="11.00">MissingPhraseException</text>
</a>
</g>
<!-- \\MissingPhraseException&#45;&gt;\\MissingResourceException -->
<g id="edge29" class="edge"><title>\\MissingPhraseException&#45;&gt;\\MissingResourceException</title>
<path fill="none" stroke="black" d="M667.815,-1282C657.764,-1279.16 647.587,-1276.13 638,-1273.05 581.997,-1255.03 519.147,-1231.02 475.746,-1213.83"/>
<polygon fill="none" stroke="black" points="476.829,-1210.49 466.243,-1210.05 474.242,-1217 476.829,-1210.49"/>
</g>
<!-- \\MissingPhraseMapException -->
<g id="node33" class="node"><title>\\MissingPhraseMapException</title>
<a xlink:href="modules.locale.MissingPhraseMapException.html" xlink:title="MissingPhraseMapException" target="_parent">
<polygon fill="none" stroke="black" points="830,-1156.05 646,-1156.05 646,-1120.05 830,-1120.05 830,-1156.05"/>
<text text-anchor="middle" x="738" y="-1135.15" font-family="Courier,monospace" font-size="11.00">MissingPhraseMapException</text>
</a>
</g>
<!-- \\MissingPhraseMapException&#45;&gt;\\MissingResourceException -->
<g id="edge31" class="edge"><title>\\MissingPhraseMapException&#45;&gt;\\MissingResourceException</title>
<path fill="none" stroke="black" d="M645.262,-1155.87C619.616,-1160.64 591.754,-1165.68 566,-1170.05 551.717,-1172.47 536.616,-1174.9 521.779,-1177.23"/>
<polygon fill="none" stroke="black" points="520.904,-1173.82 511.562,-1178.82 521.982,-1180.74 520.904,-1173.82"/>
</g>
<!-- \\Logger -->
<g id="node34" class="node"><title>\\Logger</title>
<a xlink:href="modules.logging.Logger.html" xlink:title="Logger" target="_parent">
<polygon fill="none" stroke="black" points="766,-130.047 710,-130.047 710,-94.0465 766,-94.0465 766,-130.047"/>
<text text-anchor="middle" x="738" y="-109.147" font-family="Courier,monospace" font-size="11.00">Logger</text>
</a>
</g>
</g>
</svg>
