<?xml version="1.0" encoding="UTF-8" standalone="no"?>
<!DOCTYPE svg PUBLIC "-//W3C//DTD SVG 1.1//EN"
 "http://www.w3.org/Graphics/SVG/1.1/DTD/svg11.dtd">
<!-- Generated by graphviz version 2.26.3 (20100126.1600)
 -->
<!-- Title: G Pages: 1 -->
<svg width="862pt" height="1579pt"
 viewBox="0.00 0.00 862.00 1579.07" xmlns="http://www.w3.org/2000/svg" xmlns:xlink="http://www.w3.org/1999/xlink">
<g id="graph1" class="graph" transform="scale(1 1) rotate(0) translate(4 1575.07)">
<title>G</title>
<polygon fill="white" stroke="white" points="-4,5 -4,-1575.07 859,-1575.07 859,5 -4,5"/>
<g id="graph2" class="cluster"><title>cluster_global</title>
<polyline fill="none" stroke="gray" points="336,-85.0667 834,-85.0667 "/>
<path fill="none" stroke="gray" d="M834,-85.0667C840,-85.0667 846,-91.0667 846,-97.0667"/>
<polyline fill="none" stroke="gray" points="846,-97.0667 846,-1551.07 "/>
<path fill="none" stroke="gray" d="M846,-1551.07C846,-1557.07 840,-1563.07 834,-1563.07"/>
<polyline fill="none" stroke="gray" points="834,-1563.07 336,-1563.07 "/>
<path fill="none" stroke="gray" d="M336,-1563.07C330,-1563.07 324,-1557.07 324,-1551.07"/>
<polyline fill="none" stroke="gray" points="324,-1551.07 324,-97.0667 "/>
<path fill="none" stroke="gray" d="M324,-97.0667C324,-91.0667 330,-85.0667 336,-85.0667"/>
<text text-anchor="middle" x="585" y="-1549.17" font-family="Times Roman,serif" font-size="11.00" fill="gray">global</text>
</g>
<!-- \\CleanPHP -->
<g id="node2" class="node"><title>\\CleanPHP</title>
<a xlink:href="CleanPHP.html" xlink:title="CleanPHP" target="_parent">
<polygon fill="none" stroke="black" points="773,-1533.07 703,-1533.07 703,-1497.07 773,-1497.07 773,-1533.07"/>
<text text-anchor="middle" x="738" y="-1512.17" font-family="Courier,monospace" font-size="11.00">CleanPHP</text>
</a>
</g>
<!-- \\ClassNotFoundException -->
<g id="node3" class="node"><title>\\ClassNotFoundException</title>
<a xlink:href="CleanPHP.html" xlink:title="ClassNotFoundException" target="_parent">
<polygon fill="none" stroke="black" points="820,-885.067 656,-885.067 656,-849.067 820,-849.067 820,-885.067"/>
<text text-anchor="middle" x="738" y="-864.167" font-family="Courier,monospace" font-size="11.00">ClassNotFoundException</text>
</a>
</g>
<!-- \\RuntimeException -->
<g id="node35" class="node"><title>\\RuntimeException</title>
<ellipse fill="none" stroke="black" cx="103" cy="-813.067" rx="103.238" ry="18.3848"/>
<text text-anchor="middle" x="103" y="-809.467" font-family="Times Roman,serif" font-size="14.00" fill="gray">\RuntimeException</text>
</g>
<!-- \\ClassNotFoundException&#45;&gt;\\RuntimeException -->
<g id="edge3" class="edge"><title>\\ClassNotFoundException&#45;&gt;\\RuntimeException</title>
<path fill="none" stroke="black" d="M671.676,-849.01C608.12,-833.312 509.241,-813.067 422,-813.067"/>
</g>
<!-- \\MissingResourceException -->
<g id="node4" class="node"><title>\\MissingResourceException</title>
<a xlink:href="CleanPHP.html" xlink:title="MissingResourceException" target="_parent">
<polygon fill="none" stroke="black" points="511,-1209.07 333,-1209.07 333,-1173.07 511,-1173.07 511,-1209.07"/>
<text text-anchor="middle" x="422" y="-1188.17" font-family="Courier,monospace" font-size="11.00">MissingResourceException</text>
</a>
</g>
<!-- \\MissingResourceException&#45;&gt;\\RuntimeException -->
<g id="edge5" class="edge"><title>\\MissingResourceException&#45;&gt;\\RuntimeException</title>
<path fill="none" stroke="black" d="M376.439,-1172.96C345.905,-1159.15 306.269,-1137.77 278,-1110.07 194.134,-1027.87 136.02,-897.191 113.452,-840.643"/>
<polygon fill="none" stroke="black" points="116.689,-839.312 109.774,-831.285 110.175,-841.873 116.689,-839.312"/>
</g>
<!-- \\MissingIndexException -->
<g id="node5" class="node"><title>\\MissingIndexException</title>
<a xlink:href="CleanPHP.html" xlink:title="MissingIndexException" target="_parent">
<polygon fill="none" stroke="black" points="817,-1263.07 659,-1263.07 659,-1227.07 817,-1227.07 817,-1263.07"/>
<text text-anchor="middle" x="738" y="-1242.17" font-family="Courier,monospace" font-size="11.00">MissingIndexException</text>
</a>
</g>
<!-- \\MissingIndexException&#45;&gt;\\MissingResourceException -->
<g id="edge7" class="edge"><title>\\MissingIndexException&#45;&gt;\\MissingResourceException</title>
<path fill="none" stroke="black" d="M658.668,-1231.51C617.111,-1224.41 565.805,-1215.64 521.598,-1208.09"/>
<polygon fill="none" stroke="black" points="522.144,-1204.63 511.697,-1206.39 520.965,-1211.53 522.144,-1204.63"/>
</g>
<!-- \\ResourceUpdateException -->
<g id="node6" class="node"><title>\\ResourceUpdateException</title>
<a xlink:href="CleanPHP.html" xlink:title="ResourceUpdateException" target="_parent">
<polygon fill="none" stroke="black" points="824,-831.067 652,-831.067 652,-795.067 824,-795.067 824,-831.067"/>
<text text-anchor="middle" x="738" y="-810.167" font-family="Courier,monospace" font-size="11.00">ResourceUpdateException</text>
</a>
</g>
<!-- \\ResourceUpdateException&#45;&gt;\\RuntimeException -->
<g id="edge9" class="edge"><title>\\ResourceUpdateException&#45;&gt;\\RuntimeException</title>
<path fill="none" stroke="black" d="M651.828,-813.067C588.296,-813.067 499.766,-813.067 422,-813.067"/>
</g>
<!-- \\PermissionsException -->
<g id="node7" class="node"><title>\\PermissionsException</title>
<a xlink:href="CleanPHP.html" xlink:title="PermissionsException" target="_parent">
<polygon fill="none" stroke="black" points="814,-777.067 662,-777.067 662,-741.067 814,-741.067 814,-777.067"/>
<text text-anchor="middle" x="738" y="-756.167" font-family="Courier,monospace" font-size="11.00">PermissionsException</text>
</a>
</g>
<!-- \\PermissionsException&#45;&gt;\\RuntimeException -->
<g id="edge11" class="edge"><title>\\PermissionsException&#45;&gt;\\RuntimeException</title>
<path fill="none" stroke="black" d="M671.676,-777.123C608.12,-792.821 509.241,-813.067 422,-813.067"/>
<path fill="none" stroke="black" d="M422,-813.067C353.669,-813.067 277.105,-813.067 216.116,-813.067"/>
<polygon fill="none" stroke="black" points="216.079,-809.567 206.079,-813.067 216.079,-816.567 216.079,-809.567"/>
</g>
<!-- \\FormValidatorException -->
<g id="node8" class="node"><title>\\FormValidatorException</title>
<a xlink:href="CleanPHP.html" xlink:title="FormValidatorException" target="_parent">
<polygon fill="none" stroke="black" points="820,-453.067 656,-453.067 656,-417.067 820,-417.067 820,-453.067"/>
<text text-anchor="middle" x="738" y="-432.167" font-family="Courier,monospace" font-size="11.00">FormValidatorException</text>
</a>
</g>
<!-- \\InvalidArgumentException -->
<g id="node41" class="node"><title>\\InvalidArgumentException</title>
<ellipse fill="none" stroke="black" cx="422" cy="-59.0667" rx="143.043" ry="18.3848"/>
<text text-anchor="middle" x="422" y="-55.4667" font-family="Times Roman,serif" font-size="14.00" fill="gray">\InvalidArgumentException</text>
</g>
<!-- \\FormValidatorException&#45;&gt;\\InvalidArgumentException -->
<g id="edge13" class="edge"><title>\\FormValidatorException&#45;&gt;\\InvalidArgumentException</title>
<path fill="none" stroke="black" d="M655.166,-420.953C648.821,-417.508 642.965,-413.271 638,-408.067 535.273,-300.396 674.598,-182.813 566,-81.0667 562.834,-78.1001 559.445,-75.4324 555.878,-73.0368"/>
<polygon fill="none" stroke="black" points="557.64,-70.0126 547.252,-67.9282 554.073,-76.0356 557.64,-70.0126"/>
</g>
<!-- \\UnexpectedFieldException -->
<g id="node9" class="node"><title>\\UnexpectedFieldException</title>
<a xlink:href="CleanPHP.html" xlink:title="UnexpectedFieldException" target="_parent">
<polygon fill="none" stroke="black" points="827,-399.067 649,-399.067 649,-363.067 827,-363.067 827,-399.067"/>
<text text-anchor="middle" x="738" y="-378.167" font-family="Courier,monospace" font-size="11.00">UnexpectedFieldException</text>
</a>
</g>
<!-- \\UnexpectedFieldException&#45;&gt;\\RuntimeException -->
<g id="edge15" class="edge"><title>\\UnexpectedFieldException&#45;&gt;\\RuntimeException</title>
<path fill="none" stroke="black" d="M648.714,-363.025C644.841,-360.414 641.233,-357.444 638,-354.067 536.598,-248.131 674.194,-131.056 566,-32.0667 518.372,11.5094 484.781,1.95993 422,-13.0667"/>
</g>
<!-- \\Config -->
<g id="node10" class="node"><title>\\Config</title>
<a xlink:href="modules.config.Config.html" xlink:title="Config" target="_parent">
<polygon fill="none" stroke="black" points="450,-1479.07 394,-1479.07 394,-1443.07 450,-1443.07 450,-1479.07"/>
<text text-anchor="middle" x="422" y="-1458.17" font-family="Courier,monospace" font-size="11.00">Config</text>
</a>
</g>
<!-- \\ConfigJSON -->
<g id="node11" class="node"><title>\\ConfigJSON</title>
<a xlink:href="modules.config.ConfigJSON.html" xlink:title="ConfigJSON" target="_parent">
<polygon fill="none" stroke="black" points="780,-1479.07 696,-1479.07 696,-1443.07 780,-1443.07 780,-1479.07"/>
<text text-anchor="middle" x="738" y="-1458.17" font-family="Courier,monospace" font-size="11.00">ConfigJSON</text>
</a>
</g>
<!-- \\ConfigJSON&#45;&gt;\\Config -->
<g id="edge33" class="edge"><title>\\ConfigJSON&#45;&gt;\\Config</title>
<path fill="none" stroke="black" stroke-dasharray="1,5" d="M695.711,-1461.07C634.154,-1461.07 520.725,-1461.07 461.05,-1461.07"/>
<polygon fill="none" stroke="black" points="460.905,-1457.57 450.905,-1461.07 460.905,-1464.57 460.905,-1457.57"/>
</g>
<!-- \\MissingConfigException -->
<g id="node12" class="node"><title>\\MissingConfigException</title>
<a xlink:href="modules.config.MissingConfigException.html" xlink:title="MissingConfigException" target="_parent">
<polygon fill="none" stroke="black" points="820,-1209.07 656,-1209.07 656,-1173.07 820,-1173.07 820,-1209.07"/>
<text text-anchor="middle" x="738" y="-1188.17" font-family="Courier,monospace" font-size="11.00">MissingConfigException</text>
</a>
</g>
<!-- \\MissingConfigException&#45;&gt;\\MissingResourceException -->
<g id="edge17" class="edge"><title>\\MissingConfigException&#45;&gt;\\MissingResourceException</title>
<path fill="none" stroke="black" d="M655.387,-1191.07C614.503,-1191.07 564.822,-1191.07 521.822,-1191.07"/>
<polygon fill="none" stroke="black" points="521.617,-1187.57 511.617,-1191.07 521.617,-1194.57 521.617,-1187.57"/>
</g>
<!-- \\Cookie -->
<g id="node13" class="node"><title>\\Cookie</title>
<a xlink:href="modules.core.Cookie.html" xlink:title="Cookie" target="_parent">
<polygon fill="none" stroke="black" points="766,-1047.07 710,-1047.07 710,-1011.07 766,-1011.07 766,-1047.07"/>
<text text-anchor="middle" x="738" y="-1026.17" font-family="Courier,monospace" font-size="11.00">Cookie</text>
</a>
</g>
<!-- \\Session -->
<g id="node14" class="node"><title>\\Session</title>
<a xlink:href="modules.core.Session.html" xlink:title="Session" target="_parent">
<polygon fill="none" stroke="black" points="770,-993.067 706,-993.067 706,-957.067 770,-957.067 770,-993.067"/>
<text text-anchor="middle" x="738" y="-972.167" font-family="Courier,monospace" font-size="11.00">Session</text>
</a>
</g>
<!-- \\String -->
<g id="node15" class="node"><title>\\String</title>
<a xlink:href="modules.core.String.html" xlink:title="String" target="_parent">
<polygon fill="none" stroke="black" points="766,-939.067 710,-939.067 710,-903.067 766,-903.067 766,-939.067"/>
<text text-anchor="middle" x="738" y="-918.167" font-family="Courier,monospace" font-size="11.00">String</text>
</a>
</g>
<!-- \\Database -->
<g id="node16" class="node"><title>\\Database</title>
<a xlink:href="modules.database.Database.html" xlink:title="Database" target="_parent">
<polygon fill="none" stroke="black" points="457,-1425.07 387,-1425.07 387,-1389.07 457,-1389.07 457,-1425.07"/>
<text text-anchor="middle" x="422" y="-1404.17" font-family="Courier,monospace" font-size="11.00">Database</text>
</a>
</g>
<!-- \\DatabaseConnectionException -->
<g id="node17" class="node"><title>\\DatabaseConnectionException</title>
<a xlink:href="modules.database.DatabaseConnectionException.html" xlink:title="DatabaseConnectionException" target="_parent">
<polygon fill="none" stroke="black" points="837,-291.067 639,-291.067 639,-255.067 837,-255.067 837,-291.067"/>
<text text-anchor="middle" x="738" y="-270.167" font-family="Courier,monospace" font-size="11.00">DatabaseConnectionException</text>
</a>
</g>
<!-- \\DatabaseConnectionException&#45;&gt;\\RuntimeException -->
<g id="edge19" class="edge"><title>\\DatabaseConnectionException&#45;&gt;\\RuntimeException</title>
<path fill="none" stroke="black" d="M649.591,-254.892C645.439,-252.32 641.536,-249.394 638,-246.067 564.916,-177.3 643.477,-95.8437 566,-32.0667 516.16,8.96083 484.781,1.95993 422,-13.0667"/>
</g>
<!-- \\DatabaseQueryException -->
<g id="node18" class="node"><title>\\DatabaseQueryException</title>
<a xlink:href="modules.database.DatabaseQueryException.html" xlink:title="DatabaseQueryException" target="_parent">
<polygon fill="none" stroke="black" points="820,-237.067 656,-237.067 656,-201.067 820,-201.067 820,-237.067"/>
<text text-anchor="middle" x="738" y="-216.167" font-family="Courier,monospace" font-size="11.00">DatabaseQueryException</text>
</a>
</g>
<!-- \\DatabaseQueryException&#45;&gt;\\RuntimeException -->
<g id="edge21" class="edge"><title>\\DatabaseQueryException&#45;&gt;\\RuntimeException</title>
<path fill="none" stroke="black" d="M655.27,-203.318C649.061,-200.211 643.201,-196.499 638,-192.067 578.652,-141.484 628.567,-78.6084 566,-32.0667 514.204,6.46256 484.781,1.95993 422,-13.0667"/>
<path fill="none" stroke="black" d="M422,-13.0667C359.219,-28.0932 325.638,11.4988 278,-32.0667 163.046,-137.194 115.213,-657.274 105.107,-784.799"/>
<polygon fill="none" stroke="black" points="101.605,-784.688 104.319,-794.929 108.584,-785.231 101.605,-784.688"/>
</g>
<!-- \\MySQLiDatabase -->
<g id="node19" class="node"><title>\\MySQLiDatabase</title>
<a xlink:href="modules.database.mysqli.MySQLiDatabase.html" xlink:title="MySQLiDatabase" target="_parent">
<polygon fill="none" stroke="black" points="793,-1425.07 683,-1425.07 683,-1389.07 793,-1389.07 793,-1425.07"/>
<text text-anchor="middle" x="738" y="-1404.17" font-family="Courier,monospace" font-size="11.00">MySQLiDatabase</text>
</a>
</g>
<!-- \\MySQLiDatabase&#45;&gt;\\Database -->
<g id="edge35" class="edge"><title>\\MySQLiDatabase&#45;&gt;\\Database</title>
<path fill="none" stroke="black" stroke-dasharray="1,5" d="M682.233,-1407.07C621.184,-1407.07 524.449,-1407.07 467.706,-1407.07"/>
<polygon fill="none" stroke="black" points="467.594,-1403.57 457.594,-1407.07 467.594,-1410.57 467.594,-1403.57"/>
</g>
<!-- \\Debug -->
<g id="node20" class="node"><title>\\Debug</title>
<a xlink:href="modules.debug.Debug.html" xlink:title="Debug" target="_parent">
<polygon fill="none" stroke="black" points="765,-723.067 711,-723.067 711,-687.067 765,-687.067 765,-723.067"/>
<text text-anchor="middle" x="738" y="-702.167" font-family="Courier,monospace" font-size="11.00">Debug</text>
</a>
</g>
<!-- \\ErrorHandler -->
<g id="node21" class="node"><title>\\ErrorHandler</title>
<a xlink:href="modules.error.ErrorHandler.html" xlink:title="ErrorHandler" target="_parent">
<polygon fill="none" stroke="black" points="787,-669.067 689,-669.067 689,-633.067 787,-633.067 787,-669.067"/>
<text text-anchor="middle" x="738" y="-648.167" font-family="Courier,monospace" font-size="11.00">ErrorHandler</text>
</a>
</g>
<!-- \\FileUpload -->
<g id="node22" class="node"><title>\\FileUpload</title>
<a xlink:href="modules.input.FileUpload.html" xlink:title="FileUpload" target="_parent">
<polygon fill="none" stroke="black" points="780,-615.067 696,-615.067 696,-579.067 780,-579.067 780,-615.067"/>
<text text-anchor="middle" x="738" y="-594.167" font-family="Courier,monospace" font-size="11.00">FileUpload</text>
</a>
</g>
<!-- \\Get -->
<g id="node23" class="node"><title>\\Get</title>
<a xlink:href="modules.input.Get.html" xlink:title="Get" target="_parent">
<polygon fill="none" stroke="black" points="765,-561.067 711,-561.067 711,-525.067 765,-525.067 765,-561.067"/>
<text text-anchor="middle" x="738" y="-540.167" font-family="Courier,monospace" font-size="11.00">Get</text>
</a>
</g>
<!-- \\Post -->
<g id="node24" class="node"><title>\\Post</title>
<a xlink:href="modules.input.Post.html" xlink:title="Post" target="_parent">
<polygon fill="none" stroke="black" points="765,-507.067 711,-507.067 711,-471.067 765,-471.067 765,-507.067"/>
<text text-anchor="middle" x="738" y="-486.167" font-family="Courier,monospace" font-size="11.00">Post</text>
</a>
</g>
<!-- \\File -->
<g id="node25" class="node"><title>\\File</title>
<a xlink:href="modules.io.File.html" xlink:title="File" target="_parent">
<polygon fill="none" stroke="black" points="449,-1101.07 395,-1101.07 395,-1065.07 449,-1065.07 449,-1101.07"/>
<text text-anchor="middle" x="422" y="-1080.17" font-family="Courier,monospace" font-size="11.00">File</text>
</a>
</g>
<!-- \\FileNotFoundException -->
<g id="node26" class="node"><title>\\FileNotFoundException</title>
<a xlink:href="modules.io.FileNotFoundException.html" xlink:title="FileNotFoundException" target="_parent">
<polygon fill="none" stroke="black" points="817,-1371.07 659,-1371.07 659,-1335.07 817,-1335.07 817,-1371.07"/>
<text text-anchor="middle" x="738" y="-1350.17" font-family="Courier,monospace" font-size="11.00">FileNotFoundException</text>
</a>
</g>
<!-- \\IOException -->
<g id="node28" class="node"><title>\\IOException</title>
<a xlink:href="modules.io.IOException.html" xlink:title="IOException" target="_parent">
<polygon fill="none" stroke="black" points="467,-1371.07 377,-1371.07 377,-1335.07 467,-1335.07 467,-1371.07"/>
<text text-anchor="middle" x="422" y="-1350.17" font-family="Courier,monospace" font-size="11.00">IOException</text>
</a>
</g>
<!-- \\FileNotFoundException&#45;&gt;\\IOException -->
<g id="edge23" class="edge"><title>\\FileNotFoundException&#45;&gt;\\IOException</title>
<path fill="none" stroke="black" d="M658.668,-1353.07C602.225,-1353.07 527.799,-1353.07 477.6,-1353.07"/>
<polygon fill="none" stroke="black" points="477.584,-1349.57 467.584,-1353.07 477.584,-1356.57 477.584,-1349.57"/>
</g>
<!-- \\Folder -->
<g id="node27" class="node"><title>\\Folder</title>
<a xlink:href="modules.io.Folder.html" xlink:title="Folder" target="_parent">
<polygon fill="none" stroke="black" points="766,-1101.07 710,-1101.07 710,-1065.07 766,-1065.07 766,-1101.07"/>
<text text-anchor="middle" x="738" y="-1080.17" font-family="Courier,monospace" font-size="11.00">Folder</text>
</a>
</g>
<!-- \\Folder&#45;&gt;\\File -->
<g id="edge25" class="edge"><title>\\Folder&#45;&gt;\\File</title>
<path fill="none" stroke="black" d="M709.4,-1083.07C652.122,-1083.07 523.365,-1083.07 459.454,-1083.07"/>
<polygon fill="none" stroke="black" points="459.406,-1079.57 449.406,-1083.07 459.406,-1086.57 459.406,-1079.57"/>
</g>
<!-- \\Exception -->
<g id="node49" class="node"><title>\\Exception</title>
<ellipse fill="none" stroke="black" cx="103" cy="-1353.07" rx="62.9325" ry="18.3848"/>
<text text-anchor="middle" x="103" y="-1349.47" font-family="Times Roman,serif" font-size="14.00" fill="gray">\Exception</text>
</g>
<!-- \\IOException&#45;&gt;\\Exception -->
<g id="edge27" class="edge"><title>\\IOException&#45;&gt;\\Exception</title>
<path fill="none" stroke="black" d="M376.295,-1353.07C324.073,-1353.07 237.893,-1353.07 176.268,-1353.07"/>
<polygon fill="none" stroke="black" points="176.215,-1349.57 166.215,-1353.07 176.215,-1356.57 176.215,-1349.57"/>
</g>
<!-- \\Language -->
<g id="node29" class="node"><title>\\Language</title>
<a xlink:href="modules.locale.Language.html" xlink:title="Language" target="_parent">
<polygon fill="none" stroke="black" points="773,-345.067 703,-345.067 703,-309.067 773,-309.067 773,-345.067"/>
<text text-anchor="middle" x="738" y="-324.167" font-family="Courier,monospace" font-size="11.00">Language</text>
</a>
</g>
<!-- \\MissingPhraseException -->
<g id="node30" class="node"><title>\\MissingPhraseException</title>
<a xlink:href="modules.locale.MissingPhraseException.html" xlink:title="MissingPhraseException" target="_parent">
<polygon fill="none" stroke="black" points="820,-1155.07 656,-1155.07 656,-1119.07 820,-1119.07 820,-1155.07"/>
<text text-anchor="middle" x="738" y="-1134.17" font-family="Courier,monospace" font-size="11.00">MissingPhraseException</text>
</a>
</g>
<!-- \\MissingPhraseException&#45;&gt;\\MissingResourceException -->
<g id="edge29" class="edge"><title>\\MissingPhraseException&#45;&gt;\\MissingResourceException</title>
<path fill="none" stroke="black" d="M655.387,-1151.18C614.416,-1158.19 564.612,-1166.7 521.55,-1174.05"/>
<polygon fill="none" stroke="black" points="520.885,-1170.62 511.617,-1175.75 522.064,-1177.52 520.885,-1170.62"/>
</g>
<!-- \\MissingPhraseMapException -->
<g id="node31" class="node"><title>\\MissingPhraseMapException</title>
<a xlink:href="modules.locale.MissingPhraseMapException.html" xlink:title="MissingPhraseMapException" target="_parent">
<polygon fill="none" stroke="black" points="830,-1317.07 646,-1317.07 646,-1281.07 830,-1281.07 830,-1317.07"/>
<text text-anchor="middle" x="738" y="-1296.17" font-family="Courier,monospace" font-size="11.00">MissingPhraseMapException</text>
</a>
</g>
<!-- \\MissingPhraseMapException&#45;&gt;\\MissingResourceException -->
<g id="edge31" class="edge"><title>\\MissingPhraseMapException&#45;&gt;\\MissingResourceException</title>
<path fill="none" stroke="black" d="M667.815,-1281.02C657.764,-1278.18 647.587,-1275.15 638,-1272.07 581.997,-1254.05 519.147,-1230.04 475.746,-1212.85"/>
<polygon fill="none" stroke="black" points="476.829,-1209.51 466.243,-1209.07 474.242,-1216.02 476.829,-1209.51"/>
</g>
<!-- \\PhraseMap -->
<g id="node32" class="node"><title>\\PhraseMap</title>
<a xlink:href="modules.locale.PhraseMap.html" xlink:title="PhraseMap" target="_parent">
<polygon fill="none" stroke="black" points="776,-183.067 700,-183.067 700,-147.067 776,-147.067 776,-183.067"/>
<text text-anchor="middle" x="738" y="-162.167" font-family="Courier,monospace" font-size="11.00">PhraseMap</text>
</a>
</g>
<!-- \\Logger -->
<g id="node33" class="node"><title>\\Logger</title>
<a xlink:href="modules.logging.Logger.html" xlink:title="Logger" target="_parent">
<polygon fill="none" stroke="black" points="766,-129.067 710,-129.067 710,-93.0667 766,-93.0667 766,-129.067"/>
<text text-anchor="middle" x="738" y="-108.167" font-family="Courier,monospace" font-size="11.00">Logger</text>
</a>
</g>
</g>
</svg>
