<?xml version="1.0" encoding="UTF-8" standalone="no"?>
<!DOCTYPE svg PUBLIC "-//W3C//DTD SVG 1.1//EN"
 "http://www.w3.org/Graphics/SVG/1.1/DTD/svg11.dtd">
<!-- Generated by graphviz version 2.26.3 (20100126.1600)
 -->
<!-- Title: G Pages: 1 -->
<svg width="862pt" height="1687pt"
 viewBox="0.00 0.00 862.00 1687.20" xmlns="http://www.w3.org/2000/svg" xmlns:xlink="http://www.w3.org/1999/xlink">
<g id="graph1" class="graph" transform="scale(1 1) rotate(0) translate(4 1683.2)">
<title>G</title>
<polygon fill="white" stroke="white" points="-4,5 -4,-1683.2 859,-1683.2 859,5 -4,5"/>
<g id="graph2" class="cluster"><title>cluster_global</title>
<polyline fill="none" stroke="gray" points="336,-85.201 834,-85.201 "/>
<path fill="none" stroke="gray" d="M834,-85.201C840,-85.201 846,-91.201 846,-97.201"/>
<polyline fill="none" stroke="gray" points="846,-97.201 846,-1659.2 "/>
<path fill="none" stroke="gray" d="M846,-1659.2C846,-1665.2 840,-1671.2 834,-1671.2"/>
<polyline fill="none" stroke="gray" points="834,-1671.2 336,-1671.2 "/>
<path fill="none" stroke="gray" d="M336,-1671.2C330,-1671.2 324,-1665.2 324,-1659.2"/>
<polyline fill="none" stroke="gray" points="324,-1659.2 324,-97.201 "/>
<path fill="none" stroke="gray" d="M324,-97.201C324,-91.201 330,-85.201 336,-85.201"/>
<text text-anchor="middle" x="585" y="-1657.3" font-family="Times Roman,serif" font-size="11.00" fill="gray">global</text>
</g>
<!-- \\CleanPHP -->
<g id="node2" class="node"><title>\\CleanPHP</title>
<a xlink:href="CleanPHP.html" xlink:title="CleanPHP" target="_parent">
<polygon fill="none" stroke="black" points="773,-1641.2 703,-1641.2 703,-1605.2 773,-1605.2 773,-1641.2"/>
<text text-anchor="middle" x="738" y="-1620.3" font-family="Courier,monospace" font-size="11.00">CleanPHP</text>
</a>
</g>
<!-- \\ClassNotFoundException -->
<g id="node3" class="node"><title>\\ClassNotFoundException</title>
<a xlink:href="CleanPHP.html" xlink:title="ClassNotFoundException" target="_parent">
<polygon fill="none" stroke="black" points="820,-993.201 656,-993.201 656,-957.201 820,-957.201 820,-993.201"/>
<text text-anchor="middle" x="738" y="-972.301" font-family="Courier,monospace" font-size="11.00">ClassNotFoundException</text>
</a>
</g>
<!-- \\RuntimeException -->
<g id="node37" class="node"><title>\\RuntimeException</title>
<ellipse fill="none" stroke="black" cx="103" cy="-921.201" rx="103.238" ry="18.3848"/>
<text text-anchor="middle" x="103" y="-917.601" font-family="Times Roman,serif" font-size="14.00" fill="gray">\RuntimeException</text>
</g>
<!-- \\ClassNotFoundException&#45;&gt;\\RuntimeException -->
<g id="edge3" class="edge"><title>\\ClassNotFoundException&#45;&gt;\\RuntimeException</title>
<path fill="none" stroke="black" d="M671.676,-957.145C608.12,-941.447 509.241,-921.201 422,-921.201"/>
</g>
<!-- \\MissingResourceException -->
<g id="node4" class="node"><title>\\MissingResourceException</title>
<a xlink:href="CleanPHP.html" xlink:title="MissingResourceException" target="_parent">
<polygon fill="none" stroke="black" points="511,-1263.2 333,-1263.2 333,-1227.2 511,-1227.2 511,-1263.2"/>
<text text-anchor="middle" x="422" y="-1242.3" font-family="Courier,monospace" font-size="11.00">MissingResourceException</text>
</a>
</g>
<!-- \\MissingResourceException&#45;&gt;\\RuntimeException -->
<g id="edge5" class="edge"><title>\\MissingResourceException&#45;&gt;\\RuntimeException</title>
<path fill="none" stroke="black" d="M332.465,-1244C313.272,-1240.45 293.983,-1234.1 278,-1223.2 178.149,-1155.09 127.658,-1009.78 110.226,-948.92"/>
<polygon fill="none" stroke="black" points="113.584,-947.931 107.53,-939.236 106.84,-949.809 113.584,-947.931"/>
</g>
<!-- \\MissingIndexException -->
<g id="node5" class="node"><title>\\MissingIndexException</title>
<a xlink:href="CleanPHP.html" xlink:title="MissingIndexException" target="_parent">
<polygon fill="none" stroke="black" points="817,-1263.2 659,-1263.2 659,-1227.2 817,-1227.2 817,-1263.2"/>
<text text-anchor="middle" x="738" y="-1242.3" font-family="Courier,monospace" font-size="11.00">MissingIndexException</text>
</a>
</g>
<!-- \\MissingIndexException&#45;&gt;\\MissingResourceException -->
<g id="edge7" class="edge"><title>\\MissingIndexException&#45;&gt;\\MissingResourceException</title>
<path fill="none" stroke="black" d="M658.668,-1245.2C617.198,-1245.2 566.021,-1245.2 521.877,-1245.2"/>
<polygon fill="none" stroke="black" points="521.697,-1241.7 511.697,-1245.2 521.697,-1248.7 521.697,-1241.7"/>
</g>
<!-- \\ResourceUpdateException -->
<g id="node6" class="node"><title>\\ResourceUpdateException</title>
<a xlink:href="CleanPHP.html" xlink:title="ResourceUpdateException" target="_parent">
<polygon fill="none" stroke="black" points="824,-939.201 652,-939.201 652,-903.201 824,-903.201 824,-939.201"/>
<text text-anchor="middle" x="738" y="-918.301" font-family="Courier,monospace" font-size="11.00">ResourceUpdateException</text>
</a>
</g>
<!-- \\ResourceUpdateException&#45;&gt;\\RuntimeException -->
<g id="edge9" class="edge"><title>\\ResourceUpdateException&#45;&gt;\\RuntimeException</title>
<path fill="none" stroke="black" d="M651.828,-921.201C588.296,-921.201 499.766,-921.201 422,-921.201"/>
</g>
<!-- \\PermissionsException -->
<g id="node7" class="node"><title>\\PermissionsException</title>
<a xlink:href="CleanPHP.html" xlink:title="PermissionsException" target="_parent">
<polygon fill="none" stroke="black" points="814,-885.201 662,-885.201 662,-849.201 814,-849.201 814,-885.201"/>
<text text-anchor="middle" x="738" y="-864.301" font-family="Courier,monospace" font-size="11.00">PermissionsException</text>
</a>
</g>
<!-- \\PermissionsException&#45;&gt;\\RuntimeException -->
<g id="edge11" class="edge"><title>\\PermissionsException&#45;&gt;\\RuntimeException</title>
<path fill="none" stroke="black" d="M671.676,-885.257C608.12,-900.955 509.241,-921.201 422,-921.201"/>
<path fill="none" stroke="black" d="M422,-921.201C353.669,-921.201 277.105,-921.201 216.116,-921.201"/>
<polygon fill="none" stroke="black" points="216.079,-917.701 206.079,-921.201 216.079,-924.701 216.079,-917.701"/>
</g>
<!-- \\FormValidatorException -->
<g id="node8" class="node"><title>\\FormValidatorException</title>
<a xlink:href="CleanPHP.html" xlink:title="FormValidatorException" target="_parent">
<polygon fill="none" stroke="black" points="820,-561.201 656,-561.201 656,-525.201 820,-525.201 820,-561.201"/>
<text text-anchor="middle" x="738" y="-540.301" font-family="Courier,monospace" font-size="11.00">FormValidatorException</text>
</a>
</g>
<!-- \\InvalidArgumentException -->
<g id="node43" class="node"><title>\\InvalidArgumentException</title>
<ellipse fill="none" stroke="black" cx="422" cy="-59.201" rx="143.043" ry="18.3848"/>
<text text-anchor="middle" x="422" y="-55.601" font-family="Times Roman,serif" font-size="14.00" fill="gray">\InvalidArgumentException</text>
</g>
<!-- \\FormValidatorException&#45;&gt;\\InvalidArgumentException -->
<g id="edge13" class="edge"><title>\\FormValidatorException&#45;&gt;\\InvalidArgumentException</title>
<path fill="none" stroke="black" d="M655.342,-529.624C648.875,-526.076 642.947,-521.668 638,-516.201 506.508,-370.902 705.425,-218.905 566,-81.201 563.048,-78.2854 559.883,-75.6531 556.544,-73.2799"/>
<polygon fill="none" stroke="black" points="558.248,-70.2178 547.91,-67.9002 554.546,-76.159 558.248,-70.2178"/>
</g>
<!-- \\UnexpectedFieldException -->
<g id="node9" class="node"><title>\\UnexpectedFieldException</title>
<a xlink:href="CleanPHP.html" xlink:title="UnexpectedFieldException" target="_parent">
<polygon fill="none" stroke="black" points="827,-507.201 649,-507.201 649,-471.201 827,-471.201 827,-507.201"/>
<text text-anchor="middle" x="738" y="-486.301" font-family="Courier,monospace" font-size="11.00">UnexpectedFieldException</text>
</a>
</g>
<!-- \\UnexpectedFieldException&#45;&gt;\\RuntimeException -->
<g id="edge15" class="edge"><title>\\UnexpectedFieldException&#45;&gt;\\RuntimeException</title>
<path fill="none" stroke="black" d="M648.49,-471.368C644.675,-468.703 641.141,-465.665 638,-462.201 507.845,-318.649 705.375,-166.819 566,-32.201 519.568,12.6469 484.922,1.22424 422,-13.201"/>
</g>
<!-- \\Config -->
<g id="node10" class="node"><title>\\Config</title>
<a xlink:href="modules.config.Config.html" xlink:title="Config" target="_parent">
<polygon fill="none" stroke="black" points="450,-1587.2 394,-1587.2 394,-1551.2 450,-1551.2 450,-1587.2"/>
<text text-anchor="middle" x="422" y="-1566.3" font-family="Courier,monospace" font-size="11.00">Config</text>
</a>
</g>
<!-- \\ConfigJSON -->
<g id="node11" class="node"><title>\\ConfigJSON</title>
<a xlink:href="modules.config.ConfigJSON.html" xlink:title="ConfigJSON" target="_parent">
<polygon fill="none" stroke="black" points="780,-1587.2 696,-1587.2 696,-1551.2 780,-1551.2 780,-1587.2"/>
<text text-anchor="middle" x="738" y="-1566.3" font-family="Courier,monospace" font-size="11.00">ConfigJSON</text>
</a>
</g>
<!-- \\ConfigJSON&#45;&gt;\\Config -->
<g id="edge33" class="edge"><title>\\ConfigJSON&#45;&gt;\\Config</title>
<path fill="none" stroke="black" stroke-dasharray="1,5" d="M695.711,-1569.2C634.154,-1569.2 520.725,-1569.2 461.05,-1569.2"/>
<polygon fill="none" stroke="black" points="460.905,-1565.7 450.905,-1569.2 460.905,-1572.7 460.905,-1565.7"/>
</g>
<!-- \\MissingConfigException -->
<g id="node12" class="node"><title>\\MissingConfigException</title>
<a xlink:href="modules.config.MissingConfigException.html" xlink:title="MissingConfigException" target="_parent">
<polygon fill="none" stroke="black" points="820,-1209.2 656,-1209.2 656,-1173.2 820,-1173.2 820,-1209.2"/>
<text text-anchor="middle" x="738" y="-1188.3" font-family="Courier,monospace" font-size="11.00">MissingConfigException</text>
</a>
</g>
<!-- \\MissingConfigException&#45;&gt;\\MissingResourceException -->
<g id="edge17" class="edge"><title>\\MissingConfigException&#45;&gt;\\MissingResourceException</title>
<path fill="none" stroke="black" d="M655.422,-1207.12C627.105,-1212.44 595.198,-1218.26 566,-1223.2 551.717,-1225.62 536.616,-1228.06 521.779,-1230.39"/>
<polygon fill="none" stroke="black" points="520.904,-1226.98 511.562,-1231.98 521.982,-1233.9 520.904,-1226.98"/>
</g>
<!-- \\Cookie -->
<g id="node13" class="node"><title>\\Cookie</title>
<a xlink:href="modules.core.Cookie.html" xlink:title="Cookie" target="_parent">
<polygon fill="none" stroke="black" points="766,-1155.2 710,-1155.2 710,-1119.2 766,-1119.2 766,-1155.2"/>
<text text-anchor="middle" x="738" y="-1134.3" font-family="Courier,monospace" font-size="11.00">Cookie</text>
</a>
</g>
<!-- \\Session -->
<g id="node14" class="node"><title>\\Session</title>
<a xlink:href="modules.core.Session.html" xlink:title="Session" target="_parent">
<polygon fill="none" stroke="black" points="770,-1101.2 706,-1101.2 706,-1065.2 770,-1065.2 770,-1101.2"/>
<text text-anchor="middle" x="738" y="-1080.3" font-family="Courier,monospace" font-size="11.00">Session</text>
</a>
</g>
<!-- \\String -->
<g id="node15" class="node"><title>\\String</title>
<a xlink:href="modules.core.String.html" xlink:title="String" target="_parent">
<polygon fill="none" stroke="black" points="766,-1047.2 710,-1047.2 710,-1011.2 766,-1011.2 766,-1047.2"/>
<text text-anchor="middle" x="738" y="-1026.3" font-family="Courier,monospace" font-size="11.00">String</text>
</a>
</g>
<!-- \\Database -->
<g id="node16" class="node"><title>\\Database</title>
<a xlink:href="modules.database.Database.html" xlink:title="Database" target="_parent">
<polygon fill="none" stroke="black" points="457,-1533.2 387,-1533.2 387,-1497.2 457,-1497.2 457,-1533.2"/>
<text text-anchor="middle" x="422" y="-1512.3" font-family="Courier,monospace" font-size="11.00">Database</text>
</a>
</g>
<!-- \\DatabaseConnectionException -->
<g id="node17" class="node"><title>\\DatabaseConnectionException</title>
<a xlink:href="modules.database.DatabaseConnectionException.html" xlink:title="DatabaseConnectionException" target="_parent">
<polygon fill="none" stroke="black" points="837,-291.201 639,-291.201 639,-255.201 837,-255.201 837,-291.201"/>
<text text-anchor="middle" x="738" y="-270.301" font-family="Courier,monospace" font-size="11.00">DatabaseConnectionException</text>
</a>
</g>
<!-- \\DatabaseConnectionException&#45;&gt;\\RuntimeException -->
<g id="edge19" class="edge"><title>\\DatabaseConnectionException&#45;&gt;\\RuntimeException</title>
<path fill="none" stroke="black" d="M649.591,-255.026C645.439,-252.454 641.536,-249.528 638,-246.201 564.916,-177.434 643.477,-95.9781 566,-32.201 516.16,8.82648 484.922,1.22424 422,-13.201"/>
</g>
<!-- \\DatabaseQueryException -->
<g id="node18" class="node"><title>\\DatabaseQueryException</title>
<a xlink:href="modules.database.DatabaseQueryException.html" xlink:title="DatabaseQueryException" target="_parent">
<polygon fill="none" stroke="black" points="820,-237.201 656,-237.201 656,-201.201 820,-201.201 820,-237.201"/>
<text text-anchor="middle" x="738" y="-216.301" font-family="Courier,monospace" font-size="11.00">DatabaseQueryException</text>
</a>
</g>
<!-- \\DatabaseQueryException&#45;&gt;\\RuntimeException -->
<g id="edge21" class="edge"><title>\\DatabaseQueryException&#45;&gt;\\RuntimeException</title>
<path fill="none" stroke="black" d="M655.27,-203.452C649.061,-200.345 643.201,-196.634 638,-192.201 578.652,-141.619 628.567,-78.7427 566,-32.201 514.204,6.32821 484.922,1.22424 422,-13.201"/>
<path fill="none" stroke="black" d="M422,-13.201C359.078,-27.6263 325.066,11.9816 278,-32.201 148.331,-153.926 111.197,-754.234 104.296,-892.681"/>
<polygon fill="none" stroke="black" points="100.789,-892.736 103.8,-902.894 107.781,-893.076 100.789,-892.736"/>
</g>
<!-- \\MySQLiDatabase -->
<g id="node19" class="node"><title>\\MySQLiDatabase</title>
<a xlink:href="modules.database.mysqli.MySQLiDatabase.html" xlink:title="MySQLiDatabase" target="_parent">
<polygon fill="none" stroke="black" points="793,-1533.2 683,-1533.2 683,-1497.2 793,-1497.2 793,-1533.2"/>
<text text-anchor="middle" x="738" y="-1512.3" font-family="Courier,monospace" font-size="11.00">MySQLiDatabase</text>
</a>
</g>
<!-- \\MySQLiDatabase&#45;&gt;\\Database -->
<g id="edge35" class="edge"><title>\\MySQLiDatabase&#45;&gt;\\Database</title>
<path fill="none" stroke="black" stroke-dasharray="1,5" d="M682.233,-1515.2C621.184,-1515.2 524.449,-1515.2 467.706,-1515.2"/>
<polygon fill="none" stroke="black" points="467.594,-1511.7 457.594,-1515.2 467.594,-1518.7 467.594,-1511.7"/>
</g>
<!-- \\Debug -->
<g id="node20" class="node"><title>\\Debug</title>
<a xlink:href="modules.debug.Debug.html" xlink:title="Debug" target="_parent">
<polygon fill="none" stroke="black" points="765,-831.201 711,-831.201 711,-795.201 765,-795.201 765,-831.201"/>
<text text-anchor="middle" x="738" y="-810.301" font-family="Courier,monospace" font-size="11.00">Debug</text>
</a>
</g>
<!-- \\ErrorHandler -->
<g id="node21" class="node"><title>\\ErrorHandler</title>
<a xlink:href="modules.error.ErrorHandler.html" xlink:title="ErrorHandler" target="_parent">
<polygon fill="none" stroke="black" points="787,-777.201 689,-777.201 689,-741.201 787,-741.201 787,-777.201"/>
<text text-anchor="middle" x="738" y="-756.301" font-family="Courier,monospace" font-size="11.00">ErrorHandler</text>
</a>
</g>
<!-- \\FileUpload -->
<g id="node22" class="node"><title>\\FileUpload</title>
<a xlink:href="modules.input.FileUpload.html" xlink:title="FileUpload" target="_parent">
<polygon fill="none" stroke="black" points="780,-723.201 696,-723.201 696,-687.201 780,-687.201 780,-723.201"/>
<text text-anchor="middle" x="738" y="-702.301" font-family="Courier,monospace" font-size="11.00">FileUpload</text>
</a>
</g>
<!-- \\Get -->
<g id="node23" class="node"><title>\\Get</title>
<a xlink:href="modules.input.Get.html" xlink:title="Get" target="_parent">
<polygon fill="none" stroke="black" points="765,-669.201 711,-669.201 711,-633.201 765,-633.201 765,-669.201"/>
<text text-anchor="middle" x="738" y="-648.301" font-family="Courier,monospace" font-size="11.00">Get</text>
</a>
</g>
<!-- \\Post -->
<g id="node24" class="node"><title>\\Post</title>
<a xlink:href="modules.input.Post.html" xlink:title="Post" target="_parent">
<polygon fill="none" stroke="black" points="765,-615.201 711,-615.201 711,-579.201 765,-579.201 765,-615.201"/>
<text text-anchor="middle" x="738" y="-594.301" font-family="Courier,monospace" font-size="11.00">Post</text>
</a>
</g>
<!-- \\File -->
<g id="node25" class="node"><title>\\File</title>
<a xlink:href="modules.io.File.html" xlink:title="File" target="_parent">
<polygon fill="none" stroke="black" points="449,-1425.2 395,-1425.2 395,-1389.2 449,-1389.2 449,-1425.2"/>
<text text-anchor="middle" x="422" y="-1404.3" font-family="Courier,monospace" font-size="11.00">File</text>
</a>
</g>
<!-- \\FileNotFoundException -->
<g id="node26" class="node"><title>\\FileNotFoundException</title>
<a xlink:href="modules.io.FileNotFoundException.html" xlink:title="FileNotFoundException" target="_parent">
<polygon fill="none" stroke="black" points="817,-1479.2 659,-1479.2 659,-1443.2 817,-1443.2 817,-1479.2"/>
<text text-anchor="middle" x="738" y="-1458.3" font-family="Courier,monospace" font-size="11.00">FileNotFoundException</text>
</a>
</g>
<!-- \\IOException -->
<g id="node28" class="node"><title>\\IOException</title>
<a xlink:href="modules.io.IOException.html" xlink:title="IOException" target="_parent">
<polygon fill="none" stroke="black" points="467,-1479.2 377,-1479.2 377,-1443.2 467,-1443.2 467,-1479.2"/>
<text text-anchor="middle" x="422" y="-1458.3" font-family="Courier,monospace" font-size="11.00">IOException</text>
</a>
</g>
<!-- \\FileNotFoundException&#45;&gt;\\IOException -->
<g id="edge23" class="edge"><title>\\FileNotFoundException&#45;&gt;\\IOException</title>
<path fill="none" stroke="black" d="M658.668,-1461.2C602.225,-1461.2 527.799,-1461.2 477.6,-1461.2"/>
<polygon fill="none" stroke="black" points="477.584,-1457.7 467.584,-1461.2 477.584,-1464.7 477.584,-1457.7"/>
</g>
<!-- \\Folder -->
<g id="node27" class="node"><title>\\Folder</title>
<a xlink:href="modules.io.Folder.html" xlink:title="Folder" target="_parent">
<polygon fill="none" stroke="black" points="766,-1425.2 710,-1425.2 710,-1389.2 766,-1389.2 766,-1425.2"/>
<text text-anchor="middle" x="738" y="-1404.3" font-family="Courier,monospace" font-size="11.00">Folder</text>
</a>
</g>
<!-- \\Folder&#45;&gt;\\File -->
<g id="edge25" class="edge"><title>\\Folder&#45;&gt;\\File</title>
<path fill="none" stroke="black" d="M709.4,-1407.2C652.122,-1407.2 523.365,-1407.2 459.454,-1407.2"/>
<polygon fill="none" stroke="black" points="459.406,-1403.7 449.406,-1407.2 459.406,-1410.7 459.406,-1403.7"/>
</g>
<!-- \\Exception -->
<g id="node51" class="node"><title>\\Exception</title>
<ellipse fill="none" stroke="black" cx="103" cy="-1461.2" rx="62.9325" ry="18.3848"/>
<text text-anchor="middle" x="103" y="-1457.6" font-family="Times Roman,serif" font-size="14.00" fill="gray">\Exception</text>
</g>
<!-- \\IOException&#45;&gt;\\Exception -->
<g id="edge27" class="edge"><title>\\IOException&#45;&gt;\\Exception</title>
<path fill="none" stroke="black" d="M376.295,-1461.2C324.073,-1461.2 237.893,-1461.2 176.268,-1461.2"/>
<polygon fill="none" stroke="black" points="176.215,-1457.7 166.215,-1461.2 176.215,-1464.7 176.215,-1457.7"/>
</g>
<!-- \\Layout -->
<g id="node29" class="node"><title>\\Layout</title>
<a xlink:href="modules.layout.Layout.html" xlink:title="Layout" target="_parent">
<polygon fill="none" stroke="black" points="766,-453.201 710,-453.201 710,-417.201 766,-417.201 766,-453.201"/>
<text text-anchor="middle" x="738" y="-432.301" font-family="Courier,monospace" font-size="11.00">Layout</text>
</a>
</g>
<!-- \\LayoutLoader -->
<g id="node30" class="node"><title>\\LayoutLoader</title>
<a xlink:href="modules.layout.LayoutLoader.html" xlink:title="LayoutLoader" target="_parent">
<polygon fill="none" stroke="black" points="787,-399.201 689,-399.201 689,-363.201 787,-363.201 787,-399.201"/>
<text text-anchor="middle" x="738" y="-378.301" font-family="Courier,monospace" font-size="11.00">LayoutLoader</text>
</a>
</g>
<!-- \\Language -->
<g id="node31" class="node"><title>\\Language</title>
<a xlink:href="modules.locale.Language.html" xlink:title="Language" target="_parent">
<polygon fill="none" stroke="black" points="773,-345.201 703,-345.201 703,-309.201 773,-309.201 773,-345.201"/>
<text text-anchor="middle" x="738" y="-324.301" font-family="Courier,monospace" font-size="11.00">Language</text>
</a>
</g>
<!-- \\MissingPhraseException -->
<g id="node32" class="node"><title>\\MissingPhraseException</title>
<a xlink:href="modules.locale.MissingPhraseException.html" xlink:title="MissingPhraseException" target="_parent">
<polygon fill="none" stroke="black" points="820,-1317.2 656,-1317.2 656,-1281.2 820,-1281.2 820,-1317.2"/>
<text text-anchor="middle" x="738" y="-1296.3" font-family="Courier,monospace" font-size="11.00">MissingPhraseException</text>
</a>
</g>
<!-- \\MissingPhraseException&#45;&gt;\\MissingResourceException -->
<g id="edge29" class="edge"><title>\\MissingPhraseException&#45;&gt;\\MissingResourceException</title>
<path fill="none" stroke="black" d="M655.387,-1285.08C614.416,-1278.08 564.612,-1269.57 521.55,-1262.21"/>
<polygon fill="none" stroke="black" points="522.064,-1258.75 511.617,-1260.52 520.885,-1265.65 522.064,-1258.75"/>
</g>
<!-- \\MissingPhraseMapException -->
<g id="node33" class="node"><title>\\MissingPhraseMapException</title>
<a xlink:href="modules.locale.MissingPhraseMapException.html" xlink:title="MissingPhraseMapException" target="_parent">
<polygon fill="none" stroke="black" points="830,-1371.2 646,-1371.2 646,-1335.2 830,-1335.2 830,-1371.2"/>
<text text-anchor="middle" x="738" y="-1350.3" font-family="Courier,monospace" font-size="11.00">MissingPhraseMapException</text>
</a>
</g>
<!-- \\MissingPhraseMapException&#45;&gt;\\MissingResourceException -->
<g id="edge31" class="edge"><title>\\MissingPhraseMapException&#45;&gt;\\MissingResourceException</title>
<path fill="none" stroke="black" d="M667.815,-1335.16C657.764,-1332.31 647.587,-1329.28 638,-1326.2 581.997,-1308.18 519.147,-1284.18 475.746,-1266.98"/>
<polygon fill="none" stroke="black" points="476.829,-1263.65 466.243,-1263.2 474.242,-1270.15 476.829,-1263.65"/>
</g>
<!-- \\PhraseMap -->
<g id="node34" class="node"><title>\\PhraseMap</title>
<a xlink:href="modules.locale.PhraseMap.html" xlink:title="PhraseMap" target="_parent">
<polygon fill="none" stroke="black" points="776,-183.201 700,-183.201 700,-147.201 776,-147.201 776,-183.201"/>
<text text-anchor="middle" x="738" y="-162.301" font-family="Courier,monospace" font-size="11.00">PhraseMap</text>
</a>
</g>
<!-- \\Logger -->
<g id="node35" class="node"><title>\\Logger</title>
<a xlink:href="modules.logging.Logger.html" xlink:title="Logger" target="_parent">
<polygon fill="none" stroke="black" points="766,-129.201 710,-129.201 710,-93.201 766,-93.201 766,-129.201"/>
<text text-anchor="middle" x="738" y="-108.301" font-family="Courier,monospace" font-size="11.00">Logger</text>
</a>
</g>
</g>
</svg>
