<?xml version="1.0" encoding="UTF-8" standalone="no"?>
<!DOCTYPE svg PUBLIC "-//W3C//DTD SVG 1.1//EN"
 "http://www.w3.org/Graphics/SVG/1.1/DTD/svg11.dtd">
<!-- Generated by graphviz version 2.26.3 (20100126.1600)
 -->
<!-- Title: G Pages: 1 -->
<svg width="862pt" height="1633pt"
 viewBox="0.00 0.00 862.00 1633.17" xmlns="http://www.w3.org/2000/svg" xmlns:xlink="http://www.w3.org/1999/xlink">
<g id="graph1" class="graph" transform="scale(1 1) rotate(0) translate(4 1629.17)">
<title>G</title>
<polygon fill="white" stroke="white" points="-4,5 -4,-1629.17 859,-1629.17 859,5 -4,5"/>
<g id="graph2" class="cluster"><title>cluster_global</title>
<polyline fill="none" stroke="gray" points="336,-85.1667 834,-85.1667 "/>
<path fill="none" stroke="gray" d="M834,-85.1667C840,-85.1667 846,-91.1667 846,-97.1667"/>
<polyline fill="none" stroke="gray" points="846,-97.1667 846,-1605.17 "/>
<path fill="none" stroke="gray" d="M846,-1605.17C846,-1611.17 840,-1617.17 834,-1617.17"/>
<polyline fill="none" stroke="gray" points="834,-1617.17 336,-1617.17 "/>
<path fill="none" stroke="gray" d="M336,-1617.17C330,-1617.17 324,-1611.17 324,-1605.17"/>
<polyline fill="none" stroke="gray" points="324,-1605.17 324,-97.1667 "/>
<path fill="none" stroke="gray" d="M324,-97.1667C324,-91.1667 330,-85.1667 336,-85.1667"/>
<text text-anchor="middle" x="585" y="-1603.27" font-family="Times Roman,serif" font-size="11.00" fill="gray">global</text>
</g>
<!-- \\CleanPHP -->
<g id="node2" class="node"><title>\\CleanPHP</title>
<a xlink:href="CleanPHP.html" xlink:title="CleanPHP" target="_parent">
<polygon fill="none" stroke="black" points="773,-1587.17 703,-1587.17 703,-1551.17 773,-1551.17 773,-1587.17"/>
<text text-anchor="middle" x="738" y="-1566.27" font-family="Courier,monospace" font-size="11.00">CleanPHP</text>
</a>
</g>
<!-- \\ClassNotFoundException -->
<g id="node3" class="node"><title>\\ClassNotFoundException</title>
<a xlink:href="CleanPHP.html" xlink:title="ClassNotFoundException" target="_parent">
<polygon fill="none" stroke="black" points="820,-939.167 656,-939.167 656,-903.167 820,-903.167 820,-939.167"/>
<text text-anchor="middle" x="738" y="-918.267" font-family="Courier,monospace" font-size="11.00">ClassNotFoundException</text>
</a>
</g>
<!-- \\RuntimeException -->
<g id="node36" class="node"><title>\\RuntimeException</title>
<ellipse fill="none" stroke="black" cx="103" cy="-867.167" rx="103.238" ry="18.3848"/>
<text text-anchor="middle" x="103" y="-863.567" font-family="Times Roman,serif" font-size="14.00" fill="gray">\RuntimeException</text>
</g>
<!-- \\ClassNotFoundException&#45;&gt;\\RuntimeException -->
<g id="edge3" class="edge"><title>\\ClassNotFoundException&#45;&gt;\\RuntimeException</title>
<path fill="none" stroke="black" d="M671.676,-903.11C608.12,-887.412 509.241,-867.167 422,-867.167"/>
</g>
<!-- \\MissingResourceException -->
<g id="node4" class="node"><title>\\MissingResourceException</title>
<a xlink:href="CleanPHP.html" xlink:title="MissingResourceException" target="_parent">
<polygon fill="none" stroke="black" points="511,-1209.17 333,-1209.17 333,-1173.17 511,-1173.17 511,-1209.17"/>
<text text-anchor="middle" x="422" y="-1188.27" font-family="Courier,monospace" font-size="11.00">MissingResourceException</text>
</a>
</g>
<!-- \\MissingResourceException&#45;&gt;\\RuntimeException -->
<g id="edge5" class="edge"><title>\\MissingResourceException&#45;&gt;\\RuntimeException</title>
<path fill="none" stroke="black" d="M332.465,-1189.97C313.272,-1186.42 293.983,-1180.07 278,-1169.17 178.149,-1101.06 127.658,-955.749 110.226,-894.886"/>
<polygon fill="none" stroke="black" points="113.584,-893.896 107.53,-885.202 106.84,-895.774 113.584,-893.896"/>
</g>
<!-- \\MissingIndexException -->
<g id="node5" class="node"><title>\\MissingIndexException</title>
<a xlink:href="CleanPHP.html" xlink:title="MissingIndexException" target="_parent">
<polygon fill="none" stroke="black" points="817,-1263.17 659,-1263.17 659,-1227.17 817,-1227.17 817,-1263.17"/>
<text text-anchor="middle" x="738" y="-1242.27" font-family="Courier,monospace" font-size="11.00">MissingIndexException</text>
</a>
</g>
<!-- \\MissingIndexException&#45;&gt;\\MissingResourceException -->
<g id="edge7" class="edge"><title>\\MissingIndexException&#45;&gt;\\MissingResourceException</title>
<path fill="none" stroke="black" d="M658.668,-1231.61C617.111,-1224.51 565.805,-1215.74 521.598,-1208.19"/>
<polygon fill="none" stroke="black" points="522.144,-1204.73 511.697,-1206.49 520.965,-1211.63 522.144,-1204.73"/>
</g>
<!-- \\ResourceUpdateException -->
<g id="node6" class="node"><title>\\ResourceUpdateException</title>
<a xlink:href="CleanPHP.html" xlink:title="ResourceUpdateException" target="_parent">
<polygon fill="none" stroke="black" points="824,-885.167 652,-885.167 652,-849.167 824,-849.167 824,-885.167"/>
<text text-anchor="middle" x="738" y="-864.267" font-family="Courier,monospace" font-size="11.00">ResourceUpdateException</text>
</a>
</g>
<!-- \\ResourceUpdateException&#45;&gt;\\RuntimeException -->
<g id="edge9" class="edge"><title>\\ResourceUpdateException&#45;&gt;\\RuntimeException</title>
<path fill="none" stroke="black" d="M651.828,-867.167C588.296,-867.167 499.766,-867.167 422,-867.167"/>
</g>
<!-- \\PermissionsException -->
<g id="node7" class="node"><title>\\PermissionsException</title>
<a xlink:href="CleanPHP.html" xlink:title="PermissionsException" target="_parent">
<polygon fill="none" stroke="black" points="814,-831.167 662,-831.167 662,-795.167 814,-795.167 814,-831.167"/>
<text text-anchor="middle" x="738" y="-810.267" font-family="Courier,monospace" font-size="11.00">PermissionsException</text>
</a>
</g>
<!-- \\PermissionsException&#45;&gt;\\RuntimeException -->
<g id="edge11" class="edge"><title>\\PermissionsException&#45;&gt;\\RuntimeException</title>
<path fill="none" stroke="black" d="M671.676,-831.223C608.12,-846.921 509.241,-867.167 422,-867.167"/>
<path fill="none" stroke="black" d="M422,-867.167C353.669,-867.167 277.105,-867.167 216.116,-867.167"/>
<polygon fill="none" stroke="black" points="216.079,-863.667 206.079,-867.167 216.079,-870.667 216.079,-863.667"/>
</g>
<!-- \\FormValidatorException -->
<g id="node8" class="node"><title>\\FormValidatorException</title>
<a xlink:href="CleanPHP.html" xlink:title="FormValidatorException" target="_parent">
<polygon fill="none" stroke="black" points="820,-507.167 656,-507.167 656,-471.167 820,-471.167 820,-507.167"/>
<text text-anchor="middle" x="738" y="-486.267" font-family="Courier,monospace" font-size="11.00">FormValidatorException</text>
</a>
</g>
<!-- \\InvalidArgumentException -->
<g id="node42" class="node"><title>\\InvalidArgumentException</title>
<ellipse fill="none" stroke="black" cx="422" cy="-59.1667" rx="143.043" ry="18.3848"/>
<text text-anchor="middle" x="422" y="-55.5667" font-family="Times Roman,serif" font-size="14.00" fill="gray">\InvalidArgumentException</text>
</g>
<!-- \\FormValidatorException&#45;&gt;\\InvalidArgumentException -->
<g id="edge13" class="edge"><title>\\FormValidatorException&#45;&gt;\\InvalidArgumentException</title>
<path fill="none" stroke="black" d="M655.473,-475.47C648.979,-471.947 643.009,-467.577 638,-462.167 520.921,-335.714 689.98,-200.861 566,-81.1667 563.015,-78.2848 559.821,-75.682 556.457,-73.3342"/>
<polygon fill="none" stroke="black" points="558.124,-70.2507 547.769,-68.0102 554.467,-76.2193 558.124,-70.2507"/>
</g>
<!-- \\UnexpectedFieldException -->
<g id="node9" class="node"><title>\\UnexpectedFieldException</title>
<a xlink:href="CleanPHP.html" xlink:title="UnexpectedFieldException" target="_parent">
<polygon fill="none" stroke="black" points="827,-453.167 649,-453.167 649,-417.167 827,-417.167 827,-453.167"/>
<text text-anchor="middle" x="738" y="-432.267" font-family="Courier,monospace" font-size="11.00">UnexpectedFieldException</text>
</a>
</g>
<!-- \\UnexpectedFieldException&#45;&gt;\\RuntimeException -->
<g id="edge15" class="edge"><title>\\UnexpectedFieldException&#45;&gt;\\RuntimeException</title>
<path fill="none" stroke="black" d="M648.145,-416.938C644.473,-414.371 641.058,-411.462 638,-408.167 522.253,-283.456 689.751,-148.939 566,-32.1667 519.048,12.1373 484.85,1.56857 422,-13.1667"/>
</g>
<!-- \\Config -->
<g id="node10" class="node"><title>\\Config</title>
<a xlink:href="modules.config.Config.html" xlink:title="Config" target="_parent">
<polygon fill="none" stroke="black" points="450,-1533.17 394,-1533.17 394,-1497.17 450,-1497.17 450,-1533.17"/>
<text text-anchor="middle" x="422" y="-1512.27" font-family="Courier,monospace" font-size="11.00">Config</text>
</a>
</g>
<!-- \\ConfigJSON -->
<g id="node11" class="node"><title>\\ConfigJSON</title>
<a xlink:href="modules.config.ConfigJSON.html" xlink:title="ConfigJSON" target="_parent">
<polygon fill="none" stroke="black" points="780,-1533.17 696,-1533.17 696,-1497.17 780,-1497.17 780,-1533.17"/>
<text text-anchor="middle" x="738" y="-1512.27" font-family="Courier,monospace" font-size="11.00">ConfigJSON</text>
</a>
</g>
<!-- \\ConfigJSON&#45;&gt;\\Config -->
<g id="edge33" class="edge"><title>\\ConfigJSON&#45;&gt;\\Config</title>
<path fill="none" stroke="black" stroke-dasharray="1,5" d="M695.711,-1515.17C634.154,-1515.17 520.725,-1515.17 461.05,-1515.17"/>
<polygon fill="none" stroke="black" points="460.905,-1511.67 450.905,-1515.17 460.905,-1518.67 460.905,-1511.67"/>
</g>
<!-- \\MissingConfigException -->
<g id="node12" class="node"><title>\\MissingConfigException</title>
<a xlink:href="modules.config.MissingConfigException.html" xlink:title="MissingConfigException" target="_parent">
<polygon fill="none" stroke="black" points="820,-1209.17 656,-1209.17 656,-1173.17 820,-1173.17 820,-1209.17"/>
<text text-anchor="middle" x="738" y="-1188.27" font-family="Courier,monospace" font-size="11.00">MissingConfigException</text>
</a>
</g>
<!-- \\MissingConfigException&#45;&gt;\\MissingResourceException -->
<g id="edge17" class="edge"><title>\\MissingConfigException&#45;&gt;\\MissingResourceException</title>
<path fill="none" stroke="black" d="M655.387,-1191.17C614.503,-1191.17 564.822,-1191.17 521.822,-1191.17"/>
<polygon fill="none" stroke="black" points="521.617,-1187.67 511.617,-1191.17 521.617,-1194.67 521.617,-1187.67"/>
</g>
<!-- \\Cookie -->
<g id="node13" class="node"><title>\\Cookie</title>
<a xlink:href="modules.core.Cookie.html" xlink:title="Cookie" target="_parent">
<polygon fill="none" stroke="black" points="766,-1101.17 710,-1101.17 710,-1065.17 766,-1065.17 766,-1101.17"/>
<text text-anchor="middle" x="738" y="-1080.27" font-family="Courier,monospace" font-size="11.00">Cookie</text>
</a>
</g>
<!-- \\Session -->
<g id="node14" class="node"><title>\\Session</title>
<a xlink:href="modules.core.Session.html" xlink:title="Session" target="_parent">
<polygon fill="none" stroke="black" points="770,-1047.17 706,-1047.17 706,-1011.17 770,-1011.17 770,-1047.17"/>
<text text-anchor="middle" x="738" y="-1026.27" font-family="Courier,monospace" font-size="11.00">Session</text>
</a>
</g>
<!-- \\String -->
<g id="node15" class="node"><title>\\String</title>
<a xlink:href="modules.core.String.html" xlink:title="String" target="_parent">
<polygon fill="none" stroke="black" points="766,-993.167 710,-993.167 710,-957.167 766,-957.167 766,-993.167"/>
<text text-anchor="middle" x="738" y="-972.267" font-family="Courier,monospace" font-size="11.00">String</text>
</a>
</g>
<!-- \\Database -->
<g id="node16" class="node"><title>\\Database</title>
<a xlink:href="modules.database.Database.html" xlink:title="Database" target="_parent">
<polygon fill="none" stroke="black" points="457,-1479.17 387,-1479.17 387,-1443.17 457,-1443.17 457,-1479.17"/>
<text text-anchor="middle" x="422" y="-1458.27" font-family="Courier,monospace" font-size="11.00">Database</text>
</a>
</g>
<!-- \\DatabaseConnectionException -->
<g id="node17" class="node"><title>\\DatabaseConnectionException</title>
<a xlink:href="modules.database.DatabaseConnectionException.html" xlink:title="DatabaseConnectionException" target="_parent">
<polygon fill="none" stroke="black" points="837,-291.167 639,-291.167 639,-255.167 837,-255.167 837,-291.167"/>
<text text-anchor="middle" x="738" y="-270.267" font-family="Courier,monospace" font-size="11.00">DatabaseConnectionException</text>
</a>
</g>
<!-- \\DatabaseConnectionException&#45;&gt;\\RuntimeException -->
<g id="edge19" class="edge"><title>\\DatabaseConnectionException&#45;&gt;\\RuntimeException</title>
<path fill="none" stroke="black" d="M649.591,-254.992C645.439,-252.42 641.536,-249.494 638,-246.167 564.916,-177.4 643.477,-95.9437 566,-32.1667 516.16,8.86082 484.85,1.56857 422,-13.1667"/>
</g>
<!-- \\DatabaseQueryException -->
<g id="node18" class="node"><title>\\DatabaseQueryException</title>
<a xlink:href="modules.database.DatabaseQueryException.html" xlink:title="DatabaseQueryException" target="_parent">
<polygon fill="none" stroke="black" points="820,-237.167 656,-237.167 656,-201.167 820,-201.167 820,-237.167"/>
<text text-anchor="middle" x="738" y="-216.267" font-family="Courier,monospace" font-size="11.00">DatabaseQueryException</text>
</a>
</g>
<!-- \\DatabaseQueryException&#45;&gt;\\RuntimeException -->
<g id="edge21" class="edge"><title>\\DatabaseQueryException&#45;&gt;\\RuntimeException</title>
<path fill="none" stroke="black" d="M655.27,-203.418C649.061,-200.311 643.201,-196.599 638,-192.167 578.652,-141.584 628.567,-78.7084 566,-32.1667 514.204,6.36255 484.85,1.56857 422,-13.1667"/>
<path fill="none" stroke="black" d="M422,-13.1667C359.15,-27.9019 325.335,11.7274 278,-32.1667 155.726,-145.552 113.161,-705.469 104.683,-838.686"/>
<polygon fill="none" stroke="black" points="101.176,-838.692 104.048,-848.89 108.162,-839.127 101.176,-838.692"/>
</g>
<!-- \\MySQLiDatabase -->
<g id="node19" class="node"><title>\\MySQLiDatabase</title>
<a xlink:href="modules.database.mysqli.MySQLiDatabase.html" xlink:title="MySQLiDatabase" target="_parent">
<polygon fill="none" stroke="black" points="793,-1479.17 683,-1479.17 683,-1443.17 793,-1443.17 793,-1479.17"/>
<text text-anchor="middle" x="738" y="-1458.27" font-family="Courier,monospace" font-size="11.00">MySQLiDatabase</text>
</a>
</g>
<!-- \\MySQLiDatabase&#45;&gt;\\Database -->
<g id="edge35" class="edge"><title>\\MySQLiDatabase&#45;&gt;\\Database</title>
<path fill="none" stroke="black" stroke-dasharray="1,5" d="M682.233,-1461.17C621.184,-1461.17 524.449,-1461.17 467.706,-1461.17"/>
<polygon fill="none" stroke="black" points="467.594,-1457.67 457.594,-1461.17 467.594,-1464.67 467.594,-1457.67"/>
</g>
<!-- \\Debug -->
<g id="node20" class="node"><title>\\Debug</title>
<a xlink:href="modules.debug.Debug.html" xlink:title="Debug" target="_parent">
<polygon fill="none" stroke="black" points="765,-777.167 711,-777.167 711,-741.167 765,-741.167 765,-777.167"/>
<text text-anchor="middle" x="738" y="-756.267" font-family="Courier,monospace" font-size="11.00">Debug</text>
</a>
</g>
<!-- \\ErrorHandler -->
<g id="node21" class="node"><title>\\ErrorHandler</title>
<a xlink:href="modules.error.ErrorHandler.html" xlink:title="ErrorHandler" target="_parent">
<polygon fill="none" stroke="black" points="787,-723.167 689,-723.167 689,-687.167 787,-687.167 787,-723.167"/>
<text text-anchor="middle" x="738" y="-702.267" font-family="Courier,monospace" font-size="11.00">ErrorHandler</text>
</a>
</g>
<!-- \\FileUpload -->
<g id="node22" class="node"><title>\\FileUpload</title>
<a xlink:href="modules.input.FileUpload.html" xlink:title="FileUpload" target="_parent">
<polygon fill="none" stroke="black" points="780,-669.167 696,-669.167 696,-633.167 780,-633.167 780,-669.167"/>
<text text-anchor="middle" x="738" y="-648.267" font-family="Courier,monospace" font-size="11.00">FileUpload</text>
</a>
</g>
<!-- \\Get -->
<g id="node23" class="node"><title>\\Get</title>
<a xlink:href="modules.input.Get.html" xlink:title="Get" target="_parent">
<polygon fill="none" stroke="black" points="765,-615.167 711,-615.167 711,-579.167 765,-579.167 765,-615.167"/>
<text text-anchor="middle" x="738" y="-594.267" font-family="Courier,monospace" font-size="11.00">Get</text>
</a>
</g>
<!-- \\Post -->
<g id="node24" class="node"><title>\\Post</title>
<a xlink:href="modules.input.Post.html" xlink:title="Post" target="_parent">
<polygon fill="none" stroke="black" points="765,-561.167 711,-561.167 711,-525.167 765,-525.167 765,-561.167"/>
<text text-anchor="middle" x="738" y="-540.267" font-family="Courier,monospace" font-size="11.00">Post</text>
</a>
</g>
<!-- \\File -->
<g id="node25" class="node"><title>\\File</title>
<a xlink:href="modules.io.File.html" xlink:title="File" target="_parent">
<polygon fill="none" stroke="black" points="449,-1371.17 395,-1371.17 395,-1335.17 449,-1335.17 449,-1371.17"/>
<text text-anchor="middle" x="422" y="-1350.27" font-family="Courier,monospace" font-size="11.00">File</text>
</a>
</g>
<!-- \\FileNotFoundException -->
<g id="node26" class="node"><title>\\FileNotFoundException</title>
<a xlink:href="modules.io.FileNotFoundException.html" xlink:title="FileNotFoundException" target="_parent">
<polygon fill="none" stroke="black" points="817,-1425.17 659,-1425.17 659,-1389.17 817,-1389.17 817,-1425.17"/>
<text text-anchor="middle" x="738" y="-1404.27" font-family="Courier,monospace" font-size="11.00">FileNotFoundException</text>
</a>
</g>
<!-- \\IOException -->
<g id="node28" class="node"><title>\\IOException</title>
<a xlink:href="modules.io.IOException.html" xlink:title="IOException" target="_parent">
<polygon fill="none" stroke="black" points="467,-1425.17 377,-1425.17 377,-1389.17 467,-1389.17 467,-1425.17"/>
<text text-anchor="middle" x="422" y="-1404.27" font-family="Courier,monospace" font-size="11.00">IOException</text>
</a>
</g>
<!-- \\FileNotFoundException&#45;&gt;\\IOException -->
<g id="edge23" class="edge"><title>\\FileNotFoundException&#45;&gt;\\IOException</title>
<path fill="none" stroke="black" d="M658.668,-1407.17C602.225,-1407.17 527.799,-1407.17 477.6,-1407.17"/>
<polygon fill="none" stroke="black" points="477.584,-1403.67 467.584,-1407.17 477.584,-1410.67 477.584,-1403.67"/>
</g>
<!-- \\Folder -->
<g id="node27" class="node"><title>\\Folder</title>
<a xlink:href="modules.io.Folder.html" xlink:title="Folder" target="_parent">
<polygon fill="none" stroke="black" points="766,-1371.17 710,-1371.17 710,-1335.17 766,-1335.17 766,-1371.17"/>
<text text-anchor="middle" x="738" y="-1350.27" font-family="Courier,monospace" font-size="11.00">Folder</text>
</a>
</g>
<!-- \\Folder&#45;&gt;\\File -->
<g id="edge25" class="edge"><title>\\Folder&#45;&gt;\\File</title>
<path fill="none" stroke="black" d="M709.4,-1353.17C652.122,-1353.17 523.365,-1353.17 459.454,-1353.17"/>
<polygon fill="none" stroke="black" points="459.406,-1349.67 449.406,-1353.17 459.406,-1356.67 459.406,-1349.67"/>
</g>
<!-- \\Exception -->
<g id="node50" class="node"><title>\\Exception</title>
<ellipse fill="none" stroke="black" cx="103" cy="-1407.17" rx="62.9325" ry="18.3848"/>
<text text-anchor="middle" x="103" y="-1403.57" font-family="Times Roman,serif" font-size="14.00" fill="gray">\Exception</text>
</g>
<!-- \\IOException&#45;&gt;\\Exception -->
<g id="edge27" class="edge"><title>\\IOException&#45;&gt;\\Exception</title>
<path fill="none" stroke="black" d="M376.295,-1407.17C324.073,-1407.17 237.893,-1407.17 176.268,-1407.17"/>
<polygon fill="none" stroke="black" points="176.215,-1403.67 166.215,-1407.17 176.215,-1410.67 176.215,-1403.67"/>
</g>
<!-- \\Layout -->
<g id="node29" class="node"><title>\\Layout</title>
<a xlink:href="modules.layout.Layout.html" xlink:title="Layout" target="_parent">
<polygon fill="none" stroke="black" points="766,-399.167 710,-399.167 710,-363.167 766,-363.167 766,-399.167"/>
<text text-anchor="middle" x="738" y="-378.267" font-family="Courier,monospace" font-size="11.00">Layout</text>
</a>
</g>
<!-- \\Language -->
<g id="node30" class="node"><title>\\Language</title>
<a xlink:href="modules.locale.Language.html" xlink:title="Language" target="_parent">
<polygon fill="none" stroke="black" points="773,-345.167 703,-345.167 703,-309.167 773,-309.167 773,-345.167"/>
<text text-anchor="middle" x="738" y="-324.267" font-family="Courier,monospace" font-size="11.00">Language</text>
</a>
</g>
<!-- \\MissingPhraseException -->
<g id="node31" class="node"><title>\\MissingPhraseException</title>
<a xlink:href="modules.locale.MissingPhraseException.html" xlink:title="MissingPhraseException" target="_parent">
<polygon fill="none" stroke="black" points="820,-1317.17 656,-1317.17 656,-1281.17 820,-1281.17 820,-1317.17"/>
<text text-anchor="middle" x="738" y="-1296.27" font-family="Courier,monospace" font-size="11.00">MissingPhraseException</text>
</a>
</g>
<!-- \\MissingPhraseException&#45;&gt;\\MissingResourceException -->
<g id="edge29" class="edge"><title>\\MissingPhraseException&#45;&gt;\\MissingResourceException</title>
<path fill="none" stroke="black" d="M667.815,-1281.12C657.764,-1278.28 647.587,-1275.25 638,-1272.17 581.997,-1254.15 519.147,-1230.14 475.746,-1212.95"/>
<polygon fill="none" stroke="black" points="476.829,-1209.61 466.243,-1209.17 474.242,-1216.12 476.829,-1209.61"/>
</g>
<!-- \\MissingPhraseMapException -->
<g id="node32" class="node"><title>\\MissingPhraseMapException</title>
<a xlink:href="modules.locale.MissingPhraseMapException.html" xlink:title="MissingPhraseMapException" target="_parent">
<polygon fill="none" stroke="black" points="830,-1155.17 646,-1155.17 646,-1119.17 830,-1119.17 830,-1155.17"/>
<text text-anchor="middle" x="738" y="-1134.27" font-family="Courier,monospace" font-size="11.00">MissingPhraseMapException</text>
</a>
</g>
<!-- \\MissingPhraseMapException&#45;&gt;\\MissingResourceException -->
<g id="edge31" class="edge"><title>\\MissingPhraseMapException&#45;&gt;\\MissingResourceException</title>
<path fill="none" stroke="black" d="M645.262,-1154.99C619.616,-1159.76 591.754,-1164.8 566,-1169.17 551.717,-1171.59 536.616,-1174.02 521.779,-1176.35"/>
<polygon fill="none" stroke="black" points="520.904,-1172.95 511.562,-1177.94 521.982,-1179.86 520.904,-1172.95"/>
</g>
<!-- \\PhraseMap -->
<g id="node33" class="node"><title>\\PhraseMap</title>
<a xlink:href="modules.locale.PhraseMap.html" xlink:title="PhraseMap" target="_parent">
<polygon fill="none" stroke="black" points="776,-183.167 700,-183.167 700,-147.167 776,-147.167 776,-183.167"/>
<text text-anchor="middle" x="738" y="-162.267" font-family="Courier,monospace" font-size="11.00">PhraseMap</text>
</a>
</g>
<!-- \\Logger -->
<g id="node34" class="node"><title>\\Logger</title>
<a xlink:href="modules.logging.Logger.html" xlink:title="Logger" target="_parent">
<polygon fill="none" stroke="black" points="766,-129.167 710,-129.167 710,-93.1667 766,-93.1667 766,-129.167"/>
<text text-anchor="middle" x="738" y="-108.267" font-family="Courier,monospace" font-size="11.00">Logger</text>
</a>
</g>
</g>
</svg>
